<?xml version="1.0" encoding="utf-8"?>
<!-- Generator: Adobe Illustrator 19.0.0, SVG Export Plug-In . SVG Version: 6.00 Build 0)  -->
<svg version="1.1" id="Layer_1" xmlns="http://www.w3.org/2000/svg" xmlns:xlink="http://www.w3.org/1999/xlink" x="0px" y="0px"
	 viewBox="0 0 394 116" style="enable-background:new 0 0 394 116;" xml:space="preserve">
<style type="text/css">
	.st0{enable-background:new    ;}
	.st1{fill:#DF4826;}
	.st2{fill:#939598;}
	.st3{fill:#FFFFFF;}
	.st4{fill:url(#SVGID_1_);}
	.st5{fill:url(#SVGID_2_);}
	.st6{fill:url(#SVGID_3_);}
	.st7{fill:url(#SVGID_4_);}
	.st8{fill:url(#SVGID_5_);}
	.st9{fill:url(#SVGID_6_);}
	.st10{fill:url(#SVGID_7_);}
	.st11{fill:url(#SVGID_8_);}
	.st12{fill:url(#SVGID_9_);}
</style>
<g class="st0">
	<path class="st1" d="M178.2,89.9c-3.1,0-5.4-0.9-7.2-3h-0.1v10.4h-3.4V66.4h3.4v2.8h0.1c1.5-2,4.1-3.2,7.2-3.2
		c7.2,0,10.7,5.1,10.7,11.9C188.9,84.9,185.5,89.9,178.2,89.9z M178.1,69.2c-5.4,0-7.5,3.9-7.5,8.7c0,4.9,2,8.7,7.4,8.7
		c5.4,0,7.5-3.8,7.5-8.7C185.6,73.1,183.6,69.2,178.1,69.2z"/>
	<path class="st1" d="M216.3,79.5h-18.7l0.4,0.4c0.6,4.2,3,6.8,7.7,6.8c2.5,0,4.7-0.9,6.3-2.5l2.4,2.3c-2.2,2.2-5.2,3.4-8.8,3.4
		c-7.6,0-11.2-5-11.2-11.7c0-7.1,4-12.1,11-12.1c7.3,0,10.8,5.1,10.8,12.1C216.3,78.7,216.3,79,216.3,79.5z M213.3,76.4l-0.4-0.4
		c-0.5-4-2.8-6.8-7.3-6.8c-4.6,0-6.9,2.9-7.5,6.8l-0.4,0.4H213.3z"/>
	<path class="st1" d="M234.8,69.7h-1.1c-3.3,0-7.1,2.2-7.1,8.4v11.4h-3.4V66.4h3.4v4h0.1c1.3-2.8,4.4-4.3,7.4-4.3h0.7V69.7z"/>
</g>
<g class="st0">
	<path class="st1" d="M249.5,69.5h-7.3l0.2,0.4v19.7H239V69.8l0.2-0.4h-2.9v-3.1h2.9L239,66v-0.3c0-4.4,2.7-7.2,7.4-7.2
		c1,0,2.3,0.3,3.2,0.6v3.2c-0.8-0.3-2.3-0.6-3.1-0.6c-2.8,0-4.1,1.6-4.1,4.1V66l-0.2,0.4h7.3V69.5z"/>
</g>
<g class="st0">
	<path class="st1" d="M274.5,79.5h-18.7l0.4,0.4c0.6,4.2,3,6.8,7.7,6.8c2.5,0,4.7-0.9,6.3-2.5l2.4,2.3c-2.2,2.2-5.2,3.4-8.8,3.4
		c-7.6,0-11.2-5-11.2-11.7c0-7.1,4-12.1,11-12.1c7.3,0,10.8,5.1,10.8,12.1C274.5,78.7,274.5,79,274.5,79.5z M271.4,76.4L271,76
		c-0.5-4-2.8-6.8-7.3-6.8c-4.6,0-6.9,2.9-7.5,6.8l-0.4,0.4H271.4z"/>
	<path class="st1" d="M299.7,86.5c-2.2,2.3-5.1,3.4-8.6,3.4c-7.4,0-11-5-11-11.7c0-6.9,4-12.1,11-12.1c3.7,0,6.5,1.1,8.2,3l-2.4,2.4
		c-1.2-1.4-3.3-2.2-5.8-2.2c-5.2,0-7.7,4.1-7.7,8.9c0,4.6,2.2,8.5,7.6,8.5c2.5,0,4.5-0.8,6.2-2.5L299.7,86.5z"/>
	<path class="st1" d="M319.2,87.3c-2.1,1.7-4.3,2.6-6.7,2.6c-3.9,0-6.3-2.6-6.3-7.1V69.8l0.2-0.4h-2.9v-3.1h2.9l-0.2-0.4v-3.7
		l3.4-1.8V66l-0.2,0.4h7.3v3.1h-7.3l0.2,0.4v12.8c0,2.7,1.2,4.1,3.2,4.1c1.6,0,2.8-0.5,4.1-1.7L319.2,87.3z"/>
</g>
<g class="st0">
	<path class="st2" d="M323.8,89.9c-1.8,0-2.8-1.2-2.8-3c0-1.8,1-3,2.8-3c1.8,0,2.8,1.2,2.8,3C326.6,88.6,325.6,89.9,323.8,89.9z"/>
</g>
<g class="st0">
	<path class="st2" d="M340.3,89.9c-7.3,0-10.9-5-10.9-11.9c0-6.9,3.6-11.9,10.9-11.9c7.3,0,10.9,5,10.9,11.9
		C351.3,84.8,347.6,89.9,340.3,89.9z M340.3,69.2c-5.3,0-7.5,3.8-7.5,8.7c0,4.9,2.2,8.7,7.6,8.7c5.3,0,7.5-3.8,7.5-8.7
		S345.7,69.2,340.3,69.2z"/>
</g>
<g class="st0">
	<path class="st2" d="M368.2,69.7h-1.1c-3.3,0-7.1,2.2-7.1,8.4v11.4h-3.4V66.4h3.4v4h0.1c1.3-2.8,4.4-4.3,7.4-4.3h0.7V69.7z"/>
</g>
<g class="st0">
	<path class="st2" d="M391.6,66.4v21.1c0,6.3-3.4,9.9-10.5,9.9c-3.7,0-6.8-1-9.4-3.1l2.4-2.4c1.8,1.5,4.5,2.3,7,2.3
		c4.7,0,7.1-2.5,7.1-6.8v-2.8h-0.1c-1.9,2.1-4.3,3-7.4,3c-7,0-10.5-4.3-10.5-10.7c0-6,3.6-10.9,10.5-10.9c3.1,0,5.9,1.2,7.4,3.2h0.1
		v-2.8H391.6z M380.9,69.2c-5,0-7.3,3.3-7.3,7.7c0,4.5,2.4,7.5,7.3,7.5c5.3,0,7.6-3.2,7.6-7.5C388.5,72.4,385.9,69.2,380.9,69.2z"/>
</g>
<polygon class="st3" points="48.4,94 48.3,93.9 17.4,107.9 79.3,61 80.3,60.2 "/>
<polygon class="st3" points="70.9,38 70.9,38 1.5,14.2 42.8,12.9 42.8,12.8 85.1,34.8 "/>
<polygon class="st3" points="80.3,60.2 127.4,64.5 29.4,114.1 48.4,94 "/>
<polygon class="st3" points="85.1,34.8 42.8,12.8 21.7,1.9 111.6,2.3 132.3,19.1 132.3,19.3 85.2,34.8 "/>
<polygon class="st3" points="85.4,34.7 85.2,34.8 132.3,19.3 127.4,64.3 127.5,64.4 127.4,64.5 80.3,60.2 "/>
<polygon class="st3" points="85.4,34.7 85.2,34.8 132.3,19.3 127.4,64.3 127.5,64.4 127.4,64.5 80.3,60.2 "/>
<polygon class="st3" points="85.1,34.8 85.2,34.8 85.1,34.8 "/>
<polygon class="st3" points="132.3,19.3 132.5,19.2 160.8,29.7 127.5,64.4 127.4,64.3 "/>
<polygon class="st3" points="149.6,13.6 160.8,29.7 160.8,29.7 132.5,19.2 "/>
<linearGradient id="SVGID_1_" gradientUnits="userSpaceOnUse" x1="-8815.8955" y1="75.6898" x2="-8786.1221" y2="63.5667" gradientTransform="matrix(-0.97 0.24 -0.24 -0.97 -8472.5898 2269.04)">
	<stop  offset="1.000000e-02" style="stop-color:#808285"/>
	<stop  offset="0.48" style="stop-color:#939598"/>
	<stop  offset="1" style="stop-color:#BCBEC0"/>
</linearGradient>
<polygon class="st4" points="48.4,94 48.3,93.9 17.4,107.9 79.3,61 80.3,60.2 "/>
<linearGradient id="SVGID_2_" gradientUnits="userSpaceOnUse" x1="-8846.8105" y1="133.6043" x2="-8770.7002" y2="133.6043" gradientTransform="matrix(-0.97 0.24 -0.24 -0.97 -8472.5898 2269.04)">
	<stop  offset="0" style="stop-color:#6D6E71"/>
	<stop  offset="0.33" style="stop-color:#939598"/>
	<stop  offset="1" style="stop-color:#C7C8CA"/>
</linearGradient>
<polygon class="st5" points="70.9,38 70.9,38 1.5,14.2 42.8,12.9 42.8,12.8 85.1,34.8 "/>
<linearGradient id="SVGID_3_" gradientUnits="userSpaceOnUse" x1="124.7163" y1="68.4866" x2="61.0283" y2="38.5558" gradientTransform="matrix(0.9704 -0.2414 -0.2414 -0.9704 -6.396 163.599)">
	<stop  offset="0" style="stop-color:#A7A9AC"/>
	<stop  offset="0.99" style="stop-color:#C7C8CA"/>
</linearGradient>
<polygon class="st6" points="80.3,60.2 127.4,64.5 29.4,114.1 48.4,94 "/>
<linearGradient id="SVGID_4_" gradientUnits="userSpaceOnUse" x1="-8875.2041" y1="120.8746" x2="-8819.9492" y2="157.4846" gradientTransform="matrix(-0.97 0.24 -0.24 -0.97 -8472.5898 2269.04)">
	<stop  offset="0" style="stop-color:#A7A9AC"/>
	<stop  offset="1" style="stop-color:#D1D3D4"/>
</linearGradient>
<polygon class="st7" points="85.1,34.8 42.8,12.8 21.7,1.9 111.6,2.3 132.3,19.1 132.3,19.3 85.2,34.8 "/>
<linearGradient id="SVGID_5_" gradientUnits="userSpaceOnUse" x1="116.4716" y1="89.835" x2="105.1127" y2="94.7449" gradientTransform="matrix(0.9704 -0.2414 -0.2414 -0.9704 -6.396 163.599)">
	<stop  offset="0" style="stop-color:#58595B"/>
	<stop  offset="0.48" style="stop-color:#808285"/>
	<stop  offset="1" style="stop-color:#939598"/>
</linearGradient>
<polygon class="st8" points="85.1,34.8 85.2,34.8 85.4,34.7 80.3,60.2 79.3,61 70.9,38 85.1,34.8 "/>
<linearGradient id="SVGID_6_" gradientUnits="userSpaceOnUse" x1="-8841.0156" y1="96.7427" x2="-8889.3564" y2="95.9733" gradientTransform="matrix(-0.97 0.24 -0.24 -0.97 -8472.5898 2269.04)">
	<stop  offset="0" style="stop-color:#939598"/>
	<stop  offset="1" style="stop-color:#BCBEC0"/>
</linearGradient>
<polygon class="st9" points="85.4,34.7 85.2,34.8 132.3,19.3 127.4,64.3 127.5,64.4 127.4,64.5 80.3,60.2 "/>
<linearGradient id="SVGID_7_" gradientUnits="userSpaceOnUse" x1="173.596" y1="78.387" x2="165.4616" y2="100.0264" gradientTransform="matrix(0.9704 -0.2414 -0.2414 -0.9704 -6.396 163.599)">
	<stop  offset="1.000000e-02" style="stop-color:#BCBEC0"/>
	<stop  offset="0.45" style="stop-color:#A7A9AC"/>
	<stop  offset="0.99" style="stop-color:#808285"/>
</linearGradient>
<polygon class="st10" points="132.3,19.3 132.5,19.2 160.8,29.7 127.5,64.4 127.4,64.3 "/>
<polygon class="st3" points="149.6,13.6 160.8,29.7 160.8,29.7 132.5,19.2 "/>
<polygon class="st3" points="168.3,27.4 161,29.5 160.8,29.7 149.6,13.6 "/>
<linearGradient id="SVGID_8_" gradientUnits="userSpaceOnUse" x1="-8919.0479" y1="110.7979" x2="-8900.7842" y2="119.8535" gradientTransform="matrix(-0.97 0.24 -0.24 -0.97 -8472.5898 2269.04)">
	<stop  offset="0" style="stop-color:#BCBEC0"/>
	<stop  offset="1" style="stop-color:#D1D3D4"/>
</linearGradient>
<polygon class="st11" points="149.6,13.6 160.8,29.7 160.8,29.7 132.5,19.2 "/>
<linearGradient id="SVGID_9_" gradientUnits="userSpaceOnUse" x1="201.9573" y1="85.0185" x2="185.8455" y2="107.4273" gradientTransform="matrix(0.9704 -0.2414 -0.2414 -0.9704 -6.396 163.599)">
	<stop  offset="0" style="stop-color:#D1D3D4"/>
	<stop  offset="1" style="stop-color:#BCBEC0"/>
</linearGradient>
<polygon class="st12" points="168.3,27.4 161,29.5 160.8,29.7 149.6,13.6 "/>
</svg>
