<?xml version="1.0" standalone="no"?>
<!DOCTYPE svg PUBLIC "-//W3C//DTD SVG 1.1//EN" "http://www.w3.org/Graphics/SVG/1.1/DTD/svg11.dtd" >
<svg xmlns="http://www.w3.org/2000/svg">
<metadata></metadata>
<defs>
<font id="sinkin_sans400_regular" horiz-adv-x="705" >
<font-face units-per-em="1000" ascent="810" descent="-190" />
<missing-glyph horiz-adv-x="310" />
<glyph horiz-adv-x="1000" />
<glyph horiz-adv-x="1000" />
<glyph horiz-adv-x="333" />
<glyph unicode="&#x9;" horiz-adv-x="1000" />
<glyph unicode="&#xa;" horiz-adv-x="1000" />
<glyph unicode="&#xd;" horiz-adv-x="1000" />
<glyph horiz-adv-x="1000" />
<glyph horiz-adv-x="1000" />
<glyph horiz-adv-x="1000" />
<glyph horiz-adv-x="1000" />
<glyph horiz-adv-x="1000" />
<glyph horiz-adv-x="1000" />
<glyph horiz-adv-x="1000" />
<glyph unicode=" "  horiz-adv-x="310" />
<glyph unicode="&#x09;" horiz-adv-x="310" />
<glyph unicode="&#xa0;" horiz-adv-x="310" />
<glyph unicode="!" horiz-adv-x="291" d="M70 73q0 37 19.5 59.5t55.5 22.5q37 0 56.5 -22t19.5 -60t-20 -60.5t-56 -22.5t-55.5 22.5t-19.5 60.5zM88 810h115l-25 -597h-65z" />
<glyph unicode="&#x22;" horiz-adv-x="393" d="M55 840h103l-25 -299h-53zM235 840h103l-25 -299h-53z" />
<glyph unicode="#" horiz-adv-x="714" d="M30 210v90h128l-2 10l49 190l8 10h-106v90h128l-2 10l51 200h84l-51 -200l-7 -10h195l-2 10l51 200h84l-51 -200l-7 -10h104v-90h-129l3 -10l-48 -190l-7 -10h104v-90h-128l2 -10l-51 -200h-84l51 200l9 10h-197l2 -10l-51 -200h-84l51 200l9 10h-106zM233 300h195l-2 10 l49 190l8 10h-198l3 -10l-48 -190z" />
<glyph unicode="$" horiz-adv-x="722" d="M55 113l73 69q94 -87 188 -99q2 0 7 -0.5t6 -0.5l-5 10v234l5 9q-9 3 -37 10q-108 31 -162 73.5t-54 119.5t61.5 133t177.5 65q11 0 14 1l-5 9v93h80v-94l-5 -10q2 0 8 -0.5t7 -0.5q132 -16 219 -112l-72 -68q-59 72 -147 89q-1 0 -7 0.5t-8 0.5l5 -9v-214l-5 -8 q9 -3 30.5 -8.5t23.5 -6.5q199 -53 199 -200q0 -80 -58 -137.5t-180 -68.5h-15l5 -9v-93h-80v92l5 10q-11 0 -14 1q-165 15 -260 120zM172 542q0 -36 32 -59t112 -47l12 -4l-4 11v193l5 11q-3 -1 -14 -1q-70 -7 -106.5 -36t-36.5 -68zM399 82q2 0 8 0.5t7 0.5q71 9 106 37.5 t35 71.5q0 81 -131 118l-11 3l-13 3l4 -9v-215z" />
<glyph unicode="%" horiz-adv-x="894" d="M30 592q0 100 46 164.5t129 64.5q84 0 129.5 -64.5t45.5 -164.5q0 -101 -45 -162.5t-130 -61.5t-130 61.5t-45 162.5zM113 592q0 -143 92 -143t92 143q0 147 -92 147t-92 -147zM262 -10l290 830h84l-290 -830h-84zM514 213q0 100 46 164.5t129 64.5q84 0 129.5 -64 t45.5 -165q0 -100 -45 -162t-130 -62t-130 62t-45 162zM597 213q0 -143 92 -143t92 143q0 148 -92 148t-92 -148z" />
<glyph unicode="&#x26;" horiz-adv-x="750" d="M55 208q0 142 200 239l-11 4q-32 37 -45.5 55t-26.5 50.5t-13 69.5q0 80 56.5 136t136.5 56q81 0 138 -56t57 -136q0 -72 -42.5 -119t-124.5 -88l10 -5q9 -10 97.5 -111t93.5 -108l3 -10q10 15 16 40t3 43h96v-10q0 -33 -16.5 -73.5t-39.5 -67.5l8 -3l99 -114h-115 l-45 52l-1 9q-79 -73 -236 -73q-132 0 -215 58.5t-83 161.5zM153 208q0 -64 54.5 -97t145.5 -33q117 0 176 52l-10 4l-209 240l-2 10q-33 -18 -45.5 -25.5t-39 -26.5t-38 -34t-22 -39t-10.5 -51zM247 623q0 -19 8.5 -39.5t18 -33t27 -32.5t23.5 -28l3 -11q68 33 100 63.5 t32 82.5q0 43 -31 73.5t-74 30.5q-45 0 -76 -30.5t-31 -75.5z" />
<glyph unicode="'" horiz-adv-x="213" d="M55 840h103l-25 -299h-53z" />
<glyph unicode="(" horiz-adv-x="275" d="M40 358q0 280 148 549h77q-128 -260 -128 -536q0 -310 128 -562h-77q-148 272 -148 549z" />
<glyph unicode=")" horiz-adv-x="275" d="M10 -191q128 252 128 562q0 276 -128 536h77q148 -269 148 -549q0 -278 -149 -549h-76z" />
<glyph unicode="*" horiz-adv-x="574" d="M55 596l178 31l-147 105l42 53l135 -120l-10 180h68l-10 -181l135 121l42 -54l-147 -104l178 -31l-15 -67l-172 50l85 -158l-61 -30l-69 167l-70 -167l-61 30l87 157l-173 -48z" />
<glyph unicode="+" horiz-adv-x="675" d="M90 360v90h208l-5 10v213h90v-213l-5 -10h207v-90h-207l5 -10v-212h-90v212l5 10h-208z" />
<glyph unicode="," horiz-adv-x="283" d="M60 73q0 37 19.5 59.5t55.5 22.5q37 0 57.5 -22.5t20.5 -59.5q0 -25 -11 -52l-83 -192l-59 24l55 128l13 10q-31 0 -49.5 23t-18.5 59z" />
<glyph unicode="-" horiz-adv-x="395" d="M30 280v90h335v-90h-335z" />
<glyph unicode="." horiz-adv-x="281" d="M60 73q0 37 19.5 59.5t55.5 22.5q37 0 56.5 -22t19.5 -60t-20 -60.5t-56 -22.5t-55.5 22.5t-19.5 60.5z" />
<glyph unicode="/" horiz-adv-x="234" d="M-70 -50l290 910h84l-290 -910h-84z" />
<glyph unicode="0" horiz-adv-x="755" d="M55 400q0 188 85.5 304t236.5 116q153 0 238 -115t85 -305q0 -189 -83.5 -299.5t-239.5 -110.5q-155 0 -238.5 110.5t-83.5 299.5zM153 400q0 -145 53.5 -232.5t170.5 -87.5q80 0 131.5 42.5t72.5 111.5t21 166q0 55 -6.5 102t-22.5 90t-41 73t-64.5 47.5t-89.5 17.5 q-79 0 -131 -46t-73 -117.5t-21 -166.5z" />
<glyph unicode="1" horiz-adv-x="401" d="M20 613l198 197h83v-810h-95v616l7 82h-2l-50 -62l-82 -82z" />
<glyph unicode="2" horiz-adv-x="681" d="M55 133q-2 91 50 165.5t154 110.5l109 38q87 30 123.5 65.5t36.5 85.5q0 57 -43 94.5t-137 37.5q-135 0 -210 -103l-70 70q103 123 281 123q138 0 207.5 -65t69.5 -157q0 -80 -48.5 -137.5t-158.5 -96.5l-129 -45q-139 -49 -139 -195q0 -4 0.5 -12t0.5 -11l-10 -11h483 v-90h-568z" />
<glyph unicode="3" d="M55 113l71 70q84 -103 219 -103q104 0 155.5 44t51.5 101q0 64 -47.5 104t-140.5 49l-125 4v87q93 1 120 4q92 10 134 49.5t42 88.5q0 51 -45 84.5t-145 33.5q-131 0 -212 -97l-70 71q103 117 281 117q147 0 218.5 -60.5t71.5 -148.5q0 -118 -141 -180v-2 q75 -27 116 -80.5t41 -123.5q0 -44 -17.5 -84.5t-52 -75t-95.5 -55t-140 -20.5q-180 0 -290 123z" />
<glyph unicode="4" horiz-adv-x="720" d="M40 190v72l457 548h78v-520l-5 -10h110v-90h-110l5 -10v-180h-95v180l5 10h-445zM161 280h324l-5 10v284l6 91h-2q-53 -70 -161 -198t-122 -145l-40 -40v-2z" />
<glyph unicode="5" horiz-adv-x="719" d="M55 135l67 67q87 -123 230 -123q107 0 160.5 54.5t53.5 130.5q0 75 -51.5 130.5t-152.5 55.5q-139 0 -221 -100l-64 63l47 397h482v-90h-411l10 -10l-18 -140l-17 -84l2 -1q85 55 190 55q146 0 224 -79.5t78 -196.5q0 -116 -78.5 -195.5t-233.5 -79.5q-100 0 -169 33.5 t-128 112.5z" />
<glyph unicode="6" horiz-adv-x="749" d="M55 400q4 196 98 308t240 112q91 0 155.5 -29.5t115.5 -90.5l-70 -71q-71 101 -203 101q-111 0 -174 -85t-65 -223h2q36 54 100 86t137 32q146 0 225.5 -80t77.5 -196q-2 -113 -82 -194t-231 -81q-160 0 -244.5 111t-81.5 300zM173 263q-2 -71 54 -127.5t155 -56.5 q96 0 155 56.5t61 128.5q1 71 -53.5 128.5t-155.5 57.5q-98 0 -156.5 -58t-59.5 -129z" />
<glyph unicode="7" horiz-adv-x="660" d="M30 720v90h600v-79l-220 -288q-49 -64 -69 -133.5t-20 -169.5v-140h-95v146q0 113 23.5 190.5t82.5 155.5l121 158l62 68v2h-485z" />
<glyph unicode="8" horiz-adv-x="752" d="M55 229q0 70 40.5 121.5t115.5 78.5v2q-127 59 -127 174q0 91 71.5 153t218.5 62t221 -62.5t74 -152.5q0 -110 -128 -174v-2q75 -29 115.5 -80t40.5 -120q0 -43 -20 -84.5t-57.5 -76.5t-101 -56.5t-142.5 -21.5t-142.5 21.5t-101 56.5t-57.5 76.5t-20 84.5zM153 231 q0 -57 59 -104t164 -47t164 47.5t59 103.5q0 65 -61.5 111t-162.5 46q-100 0 -161 -46t-61 -111zM182 599q0 -49 50.5 -91t142.5 -42t143.5 42t51.5 91q0 53 -47 91.5t-146 38.5t-147 -38.5t-48 -91.5z" />
<glyph unicode="9" horiz-adv-x="749" d="M55 545q2 113 82 194t231 81q160 0 244.5 -111t81.5 -300q-4 -197 -96.5 -308.5t-237.5 -111.5q-178 0 -282 122l71 71q74 -103 211 -103q111 0 173 84.5t64 223.5h-2q-36 -54 -100 -86t-137 -32q-146 0 -225.5 80t-77.5 196zM151 545q-1 -71 53.5 -128.5t155.5 -57.5 q98 0 156.5 58t59.5 129q2 71 -54 127.5t-155 56.5q-96 0 -155 -56.5t-61 -128.5z" />
<glyph unicode=":" horiz-adv-x="291" d="M70 73q0 37 19.5 59.5t55.5 22.5q37 0 56.5 -22t19.5 -60t-20 -60.5t-56 -22.5t-55.5 22.5t-19.5 60.5zM70 527q0 37 19.5 59.5t55.5 22.5q37 0 56.5 -22t19.5 -60t-20 -60.5t-56 -22.5t-55.5 22.5t-19.5 60.5z" />
<glyph unicode=";" horiz-adv-x="293" d="M70 73q0 37 19.5 59.5t55.5 22.5q37 0 57.5 -22.5t20.5 -59.5q0 -25 -11 -52l-83 -192l-59 24l55 128l13 10q-31 0 -49.5 23t-18.5 59zM70 527q0 37 19.5 59.5t55.5 22.5q37 0 56.5 -22t19.5 -60t-20 -60.5t-56 -22.5t-55.5 22.5t-19.5 60.5z" />
<glyph unicode="&#x3c;" horiz-adv-x="506" d="M55 405l296 295l65 -65l-185 -185l-56 -45l56 -46l185 -184l-65 -65z" />
<glyph unicode="=" horiz-adv-x="675" d="M90 250v90h495v-90h-495zM90 470v90h495v-90h-495z" />
<glyph unicode="&#x3e;" horiz-adv-x="506" d="M90 175l186 185l55 45l-56 46l-185 184l65 65l296 -295l-296 -295z" />
<glyph unicode="?" horiz-adv-x="639" d="M55 696q104 124 274 124q114 0 184.5 -65t70.5 -145q0 -65 -37.5 -114.5t-98.5 -73.5l-38 -15q-60 -23 -77.5 -55t-17.5 -106v-33h-95v42q0 97 31 150.5t128 90.5l23 9q45 18 64.5 43t19.5 62q0 45 -45.5 82.5t-111.5 37.5q-126 0 -201 -103zM192 73q0 37 19.5 59.5 t55.5 22.5q37 0 56.5 -22t19.5 -60t-20 -60.5t-56 -22.5t-55.5 22.5t-19.5 60.5z" />
<glyph unicode="@" horiz-adv-x="990" d="M70 419q0 175 130.5 300.5t306.5 125.5q169 0 291 -116.5t122 -284.5q0 -66 -28 -130t-82.5 -108t-121.5 -44q-79 0 -112 63h-2q-64 -64 -148 -64q-79 0 -122 57.5t-43 139.5q0 105 71.5 193.5t174.5 88.5q30 0 58.5 -14.5t45.5 -37.5h2l12 41h87l-66 -257 q-12 -45 -12 -79q0 -24 18.5 -41t43.5 -17q48 0 83 35t49.5 80.5t14.5 92.5q0 137 -98.5 237t-235.5 100q-149 0 -256 -108t-107 -257q0 -157 105 -266.5t261 -109.5q100 0 193 62l50 -49q-107 -78 -238 -78q-192 0 -319.5 126t-127.5 319zM350 371q0 -134 93 -134 q66 0 103.5 66.5t37.5 144.5q0 120 -88 120q-63 0 -104.5 -65t-41.5 -132z" />
<glyph unicode="A" horiz-adv-x="843" d="M15 0l356 810h101l356 -810h-104l-86 195l5 10h-443l5 -10l-86 -195h-104zM243 295h357l-10 10l-143 325l-24 81h-2l-25 -81l-143 -325z" />
<glyph unicode="B" horiz-adv-x="787" d="M90 0v810h371q120 0 183 -62.5t63 -155.5q0 -109 -91 -164v-2q126 -56 126 -196q0 -108 -70.5 -169t-201.5 -61h-380zM175 90h295q174 0 174 140q0 68 -43.5 105t-131.5 37h-294l10 -10v-262zM175 462h276q82 0 120 35.5t38 94.5q0 128 -158 128h-276l10 -10v-238z" />
<glyph unicode="C" horiz-adv-x="785" d="M55 400q0 189 104.5 304.5t292.5 115.5q196 0 303 -124l-72 -69q-77 103 -230 103q-102 0 -171 -45.5t-99 -118t-30 -166.5q0 -69 17 -125.5t51.5 -101t93.5 -69t137 -24.5q154 0 230 102l71 -68q-107 -124 -302 -124q-192 0 -294 110.5t-102 299.5z" />
<glyph unicode="D" horiz-adv-x="823" d="M90 0v810h306q66 0 120 -12.5t92.5 -33.5t67 -52.5t46 -65.5t28 -76.5t14.5 -81t4 -83.5q0 -64 -8 -117t-31.5 -108.5t-62.5 -93.5t-107 -62t-158 -24h-311zM175 90h216q70 0 121.5 17.5t81 45t47.5 70t23.5 85t5.5 97.5t-6 97t-24 85t-48.5 70.5t-82.5 45t-123 17.5 h-211l10 -10v-610z" />
<glyph unicode="E" horiz-adv-x="755" d="M90 0v810h595v-90h-510l10 -10v-250l-10 -10h462v-90h-462l10 -10v-250l-10 -10h510v-90h-595z" />
<glyph unicode="F" horiz-adv-x="695" d="M90 0v810h575v-90h-490l10 -10v-270l-10 -10h442v-90h-442l10 -10v-330h-95z" />
<glyph unicode="G" horiz-adv-x="885" d="M55 397q0 195 106 309t294 114q210 0 313 -122l-72 -69q-75 101 -240 101q-151 0 -227 -88t-76 -245q0 -151 74 -234t223 -83q116 0 188.5 76.5t72.5 194.5l10 10h-275v90h349v-451h-82v119h-2q-45 -61 -112.5 -95t-149.5 -34q-187 0 -290.5 108.5t-103.5 298.5z" />
<glyph unicode="H" horiz-adv-x="845" d="M90 0v810h95v-350l-10 -10h495l-10 10v350h95v-810h-95v350l10 10h-495l10 -10v-350h-95z" />
<glyph unicode="I" horiz-adv-x="285" d="M95 0v810h95v-810h-95z" />
<glyph unicode="J" horiz-adv-x="614" d="M0 114l68 67q30 -44 78 -72.5t95 -28.5q81 0 137 50.5t56 161.5v518h95v-513q0 -83 -23 -144.5t-64.5 -96t-91.5 -50.5t-110 -16q-71 0 -134 33.5t-106 90.5z" />
<glyph unicode="K" horiz-adv-x="732" d="M90 0v810h95v-810h-95zM195 409l389 400h135l-398 -397v-2l411 -410h-139z" />
<glyph unicode="L" horiz-adv-x="653" d="M90 0v810h95v-709l-10 -11h463v-90h-548z" />
<glyph unicode="M" horiz-adv-x="975" d="M90 0v810h85l272 -540l40 -95h2l40 95l271 540h85v-810h-95v596h-2l-54 -129l-246 -478h-2l-249 484l-50 123h-2v-596h-95z" />
<glyph unicode="N" horiz-adv-x="845" d="M90 0v810h87l422 -560l59 -91h2v651h95v-810h-87l-419 556l-62 95h-2v-651h-95z" />
<glyph unicode="O" horiz-adv-x="869" d="M55 400q0 190 99 305t280 115q183 0 281.5 -114.5t98.5 -305.5q0 -188 -99.5 -299t-280.5 -111q-183 0 -281 110.5t-98 299.5zM153 400q0 -143 69.5 -231.5t212.5 -88.5q74 0 129 24.5t87.5 69t48.5 101t16 125.5q0 144 -69 237t-212 93t-212.5 -91.5t-69.5 -238.5z" />
<glyph unicode="P" horiz-adv-x="772" d="M90 0v810h370q126 0 196.5 -69t70.5 -181q0 -109 -71 -179.5t-197 -70.5h-284l10 -10v-300h-95zM175 400h284q84 0 127 44t43 116q0 74 -42.5 117t-126.5 43h-285l10 -10v-300z" />
<glyph unicode="Q" horiz-adv-x="869" d="M55 405q0 189 98.5 302t280.5 113q183 0 281.5 -112.5t98.5 -302.5q0 -175 -83 -282l123 -124l-63 -64l-125 124q-94 -69 -232 -69q-182 0 -280.5 113t-98.5 302zM153 405q0 -93 27.5 -164t92.5 -116t162 -45q91 0 155 39l16 1l-130 129l64 64l127 -127l1 15 q48 81 48 204q0 68 -16 125.5t-48 103t-87.5 71t-129.5 25.5t-129 -25t-88 -70t-49 -102.5t-16 -127.5z" />
<glyph unicode="R" horiz-adv-x="787" d="M90 0v810h355q117 0 194.5 -62t77.5 -177q0 -77 -46.5 -133.5t-115.5 -74.5v-2q68 -28 106 -108l121 -253h-107l-101 213q-30 63 -79 92t-128 29h-192l10 -10v-324h-95zM175 424h259q86 0 135.5 40.5t49.5 106.5q0 77 -47 113t-127 36h-270l10 -10v-276z" />
<glyph unicode="S" horiz-adv-x="771" d="M50 122l75 70q64 -59 128 -85.5t141 -26.5q109 0 169 37t60 97q0 43 -39 78.5t-118 56.5q-9 2 -74.5 19.5t-74.5 20.5q-122 34 -184 81.5t-62 130.5q0 92 81 155.5t236 63.5q97 0 177 -32.5t133 -91.5l-72 -69q-86 103 -237 103q-108 0 -164 -36t-56 -89q0 -45 45 -73.5 t151 -57.5q104 -29 131 -36q115 -30 170 -87t55 -131q0 -44 -17.5 -83.5t-54.5 -73.5t-101.5 -53.5t-149.5 -19.5q-102 0 -195.5 33.5t-152.5 98.5z" />
<glyph unicode="T" horiz-adv-x="715" d="M20 720v90h675v-90h-295l5 -10v-710h-95v710l5 10h-295z" />
<glyph unicode="U" horiz-adv-x="857" d="M85 371v439h95v-438q0 -142 58.5 -217t190.5 -75q131 0 189.5 75t58.5 217v438h95v-439q0 -381 -343 -381q-344 0 -344 381z" />
<glyph unicode="V" horiz-adv-x="821" d="M15 810h107l264 -630l25 -81h2l24 81l264 630h105l-345 -810h-101z" />
<glyph unicode="W" horiz-adv-x="1047" d="M25 810h102l164 -630l13 -81h2l14 81l166 630h76l167 -630l13 -81h2l13 81l165 630h100l-216 -810h-124l-142 540l-15 96h-2l-15 -96l-142 -540h-125z" />
<glyph unicode="X" horiz-adv-x="764" d="M20 0l303 407l-300 403h120l185 -250l54 -84h2l53 84l186 250h118l-300 -404l303 -406h-120l-185 250l-55 88h-2l-57 -88l-186 -250h-119z" />
<glyph unicode="Y" horiz-adv-x="801" d="M15 810h120l210 -297l55 -93h2l54 93l211 297h119l-337 -470v-340h-96v340z" />
<glyph unicode="Z" horiz-adv-x="785" d="M60 0v80l472 570l68 68v2h-530v90h650v-79l-468 -570l-70 -69v-2h543v-90h-665z" />
<glyph unicode="[" horiz-adv-x="279" d="M60 -190v1097h209v-73h-131v-950h131v-74h-209z" />
<glyph unicode="\" horiz-adv-x="314" d="M-30 860h84l290 -910h-84z" />
<glyph unicode="]" horiz-adv-x="279" d="M10 -116h131v950h-131v73h209v-1097h-209v74z" />
<glyph unicode="^" horiz-adv-x="654" d="M75 415l216 395h72l216 -395h-95l-124 225l-32 70h-2q-20 -47 -46 -96t-59.5 -107.5t-50.5 -91.5h-95z" />
<glyph unicode="_" horiz-adv-x="658" d="M-10 -95h678v-85h-678v85z" />
<glyph unicode="`" horiz-adv-x="695" d="M227 865l68 68l170 -198l-40 -40z" />
<glyph unicode="a" horiz-adv-x="695" d="M55 183q0 41 15 73.5t37.5 53.5t58.5 36.5t68.5 23.5t77.5 12t75 5t71 1q46 0 70 -4l-10 11v14q0 76 -47.5 109.5t-125.5 33.5q-131 0 -198 -63l-64 63q103 87 262 87q53 0 98 -11.5t84 -36.5t61 -71.5t22 -109.5v-410h-92v56h-2q-75 -67 -204 -67q-50 0 -94 10.5 t-81.5 32t-59.5 60.5t-22 91zM147 183q0 -39 28.5 -64.5t63.5 -34t74 -8.5q29 0 60 4.5t66 15.5t57 33.5t22 54.5v111l10 9q-36 3 -64 3h-46t-49 -1.5t-54.5 -4.5t-49.5 -8.5t-47.5 -15t-35.5 -22t-26.5 -31t-8.5 -41.5z" />
<glyph unicode="b" horiz-adv-x="728" d="M90 0v840h92v-287h2q76 87 197 87q144 0 218 -89.5t74 -238.5q0 -146 -74.5 -234t-217.5 -88q-129 0 -197 83h-2v-73h-92zM174 312q0 -107 49.5 -170.5t154.5 -63.5t154 63.5t49 170.5q0 108 -49.5 174t-154.5 66t-154 -65.5t-49 -174.5z" />
<glyph unicode="c" horiz-adv-x="618" d="M55 310q0 145 80.5 237.5t220.5 92.5q147 0 224 -82l-65 -65q-56 61 -159 59q-101 -1 -155 -69.5t-54 -172.5q0 -102 51 -167t157 -65q104 0 168 68l65 -64q-88 -92 -234 -92q-147 0 -223 88t-76 232z" />
<glyph unicode="d" horiz-adv-x="728" d="M55 311q0 148 75 238.5t217 90.5q123 0 197 -87h2v286h92v-839h-92v73h-2q-68 -83 -197 -83q-143 0 -217.5 87.5t-74.5 233.5zM147 312q0 -107 49.5 -170.5t154.5 -63.5t154 63.5t49 170.5q0 109 -48.5 174.5t-154.5 65.5q-104 0 -154 -66.5t-50 -173.5z" />
<glyph unicode="e" d="M55 310q0 148 80 239t220 91q144 0 219.5 -90.5t75.5 -239.5q0 -11 -2 -37h-509l11 -10q26 -185 210 -185q103 0 173 68l65 -64q-94 -92 -239 -92q-150 0 -227 88t-77 232zM140 357h426l-11 10q-12 85 -61.5 135t-138.5 50q-90 0 -140.5 -50.5t-63.5 -134.5z" />
<glyph unicode="f" horiz-adv-x="412" d="M30 546v84h80l-5 10v8q0 91 53.5 144t147.5 53q47 0 86 -16v-86q-37 16 -84 16q-55 0 -83 -29.5t-28 -83.5v-6l-5 -10h200v-84h-200l5 -10v-536h-92v536l5 10h-80z" />
<glyph unicode="g" horiz-adv-x="728" d="M55 343q0 128 75.5 212.5t211.5 84.5q63 0 116.5 -23t85.5 -64h2v77h92v-575q0 -130 -71.5 -200t-213.5 -70q-150 0 -257 85l66 66q36 -30 87.5 -47t103.5 -17q94 0 143.5 47.5t49.5 136.5v77h-2q-73 -83 -202 -83q-140 0 -213.5 78.5t-73.5 214.5zM147 343 q0 -95 51 -150t148 -55q104 0 156 55.5t52 149.5q0 95 -54.5 152t-153.5 57q-98 0 -148.5 -57.5t-50.5 -151.5z" />
<glyph unicode="h" horiz-adv-x="728" d="M90 0v840h92v-289h2q35 42 88.5 65.5t113.5 23.5q128 0 192.5 -64t64.5 -174v-402h-92v387q0 79 -37.5 122t-138.5 43q-84 0 -138.5 -46t-54.5 -132v-374h-92z" />
<glyph unicode="i" horiz-adv-x="272" d="M76 780q0 30 15.5 48t44.5 18t44.5 -18t15.5 -48t-15.5 -48t-44.5 -18t-44.5 18t-15.5 48zM90 0v630h92v-630h-92z" />
<glyph unicode="j" horiz-adv-x="272" d="M-64 -111q34 -17 80 -17q35 0 54.5 22.5t19.5 66.5v669h92v-675q0 -84 -42 -127t-122 -43q-47 0 -82 17v87zM76 780q0 30 15.5 48t44.5 18t44.5 -18t15.5 -48t-15.5 -48t-44.5 -18t-44.5 18t-15.5 48z" />
<glyph unicode="k" horiz-adv-x="635" d="M90 0v840h92v-840h-92zM192 324l299 306h130l-309 -307v-2l323 -321h-128z" />
<glyph unicode="l" horiz-adv-x="272" d="M90 0v840h92v-840h-92z" />
<glyph unicode="m" horiz-adv-x="1005" d="M90 0v630h93v-79h1q24 40 68 64.5t95 24.5q59 0 105.5 -30.5t70.5 -79.5h2q31 50 81.5 80t107.5 30q206 0 206 -266l-1 -374h-92v350q0 49 -4 81t-17 62t-40 44.5t-69 14.5q-71 0 -109 -50t-37 -123v-379h-93v374q0 42 -5 72t-18.5 55.5t-39.5 38.5t-66 13 q-64 0 -105 -49.5t-41 -125.5v-378h-93z" />
<glyph unicode="n" horiz-adv-x="728" d="M90 0v630h92v-79h2q32 41 86.5 65t114.5 24q124 0 191 -61.5t67 -176.5v-402h-92v382q0 84 -37.5 127t-138.5 43q-84 0 -138.5 -46t-54.5 -132v-374h-92z" />
<glyph unicode="o" d="M55 315q0 146 76.5 235.5t220.5 89.5q145 0 221.5 -88.5t76.5 -236.5q0 -145 -77.5 -235t-220.5 -90q-144 0 -220.5 89t-76.5 236zM147 315q0 -106 51 -171.5t155 -65.5t154.5 65.5t50.5 171.5t-51 171.5t-155 65.5t-154.5 -65t-50.5 -172z" />
<glyph unicode="p" horiz-adv-x="728" d="M90 -210v840h92v-77h2q68 87 197 87q143 0 217.5 -89.5t74.5 -235.5q0 -148 -74 -236.5t-218 -88.5q-124 0 -197 83h-2v-283h-92zM174 315q0 -108 49 -172.5t154 -64.5t154.5 64.5t49.5 172.5t-49 172.5t-154 64.5t-154.5 -65t-49.5 -172z" />
<glyph unicode="q" horiz-adv-x="728" d="M55 315q0 146 74.5 235.5t217.5 89.5q129 0 197 -87h2v77h92v-840h-92v283h-2q-73 -83 -197 -83q-144 0 -218 88.5t-74 236.5zM147 315q0 -108 49.5 -172.5t154.5 -64.5q106 0 154.5 64.5t48.5 172.5q0 107 -49.5 172t-153.5 65q-105 0 -154.5 -65t-49.5 -172z" />
<glyph unicode="r" horiz-adv-x="425" d="M90 0v630h92v-109h2q26 56 81.5 86t119.5 30h20v-98h-30q-78 0 -135.5 -56t-57.5 -172v-311h-92z" />
<glyph unicode="s" horiz-adv-x="635" d="M55 97l68 68q52 -48 99 -68t103 -20q80 0 121 26t41 66q0 32 -24 53t-86 38q-67 19 -112 33q-93 26 -142.5 64.5t-49.5 106.5q0 74 64 125t184 51q152 0 245 -102l-68 -68q-68 82 -177 82q-76 0 -115.5 -25.5t-39.5 -59.5q0 -29 31 -49.5t108 -41.5q98 -30 101 -31 q92 -25 133 -67.5t41 -104.5q0 -77 -62.5 -130.5t-189.5 -53.5q-175 0 -273 108z" />
<glyph unicode="t" horiz-adv-x="470" d="M30 546v84h80l-5 10v100l92 50v-150l-5 -10h200v-84h-200l5 -10v-348q0 -54 22.5 -82.5t63.5 -28.5q62 0 112 47l65 -64q-85 -70 -182 -70q-80 0 -126.5 51t-46.5 143v352l5 10h-80z" />
<glyph unicode="u" horiz-adv-x="720" d="M85 238v392h92v-387q0 -80 36 -122.5t136 -42.5q83 0 136 46t53 132v374h92v-630h-92v79h-2q-78 -89 -197 -89q-130 0 -192 64.5t-62 183.5z" />
<glyph unicode="v" horiz-adv-x="657" d="M10 630h103l188 -451l27 -80h2l26 80l188 451h103l-268 -630h-101z" />
<glyph unicode="w" horiz-adv-x="893" d="M15 630h98l132 -460l12 -71h2l10 71l139 460h77l139 -460l12 -71h2l10 71l134 460h96l-185 -630h-108l-125 399l-12 80h-2l-13 -80l-126 -399h-108z" />
<glyph unicode="x" horiz-adv-x="622" d="M20 0l235 317l-233 313h115l140 -193l34 -55h2l33 55l141 193h113l-232 -314l234 -316h-114l-141 193l-35 59h-2l-35 -59l-141 -193h-114z" />
<glyph unicode="y" horiz-adv-x="662" d="M15 630h103l196 -451l27 -80h2l26 80l175 451h103l-285 -698q-28 -69 -75.5 -108t-106.5 -39q-71 0 -118 25v87q45 -25 106 -25q78 0 128 129z" />
<glyph unicode="z" horiz-adv-x="657" d="M60 0v73l353 413l56 54v2h-402v87h527v-70l-359 -413l-57 -57v-2h419v-87h-537z" />
<glyph unicode="{" horiz-adv-x="330" d="M40 311v96q73 14 73 98v236q0 155 115 170l92 3v-71q-80 0 -104 -19.5t-24 -72.5v-245q0 -58 -15 -90t-60 -57q51 -29 63 -56t12 -93v-243q0 -53 24 -72.5t104 -19.5v-71q-71 0 -92 3q-115 15 -115 170v227q0 46 -15.5 73t-57.5 34z" />
<glyph unicode="|" horiz-adv-x="314" d="M115 -50v910h84v-910h-84z" />
<glyph unicode="}" horiz-adv-x="330" d="M10 -125q80 0 104 19.5t24 72.5v243q0 66 12 93t63 56q-45 25 -60 57t-15 90v245q0 53 -24 72.5t-104 19.5v71q72 0 93 -3q65 -8 89.5 -53.5t24.5 -116.5v-236q0 -84 73 -98v-96q-42 -7 -57.5 -34t-15.5 -73v-227q0 -71 -24.5 -116.5t-89.5 -53.5l-93 -3v71z" />
<glyph unicode="~" horiz-adv-x="577" d="M30 293q13 45 57.5 81.5t98.5 36.5q40 0 111.5 -41.5t101.5 -41.5q35 0 60 23.5t35 59.5l53 -52q-16 -50 -60.5 -84t-97.5 -34q-38 0 -109 41.5t-104 41.5q-32 0 -57 -23t-36 -60z" />
<glyph horiz-adv-x="1000" />
<glyph unicode="&#xa1;" horiz-adv-x="291" d="M70 737q0 38 20 60.5t56 22.5t55.5 -22.5t19.5 -60.5q0 -37 -19.5 -59.5t-55.5 -22.5q-37 0 -56.5 22t-19.5 60zM88 0l25 597h65l25 -597h-115z" />
<glyph unicode="&#xa2;" horiz-adv-x="618" d="M55 400q0 145 80.5 237.5t220.5 92.5q20 0 27 -2l-3 9l16 83h78l-18 -94l-7 -6q81 -19 131 -72l-65 -65q-28 31 -83 50l4 -10l-87 -446l-7 -9h13q104 0 168 68l65 -64q-88 -92 -234 -92h-28l3 -7l-16 -83h-78l18 94l7 7q-102 27 -153.5 109.5t-51.5 199.5zM147 400 q0 -175 130 -221l-3 11l86 444l6 8h-10q-101 0 -155 -69t-54 -173z" />
<glyph unicode="&#xa3;" horiz-adv-x="711" d="M55 0v85q30 15 50 29.5t36.5 36t24 48t7 64t-10.5 86.5l5 11h-95v89h72l-8 10q-22 81 -22 135q0 115 73.5 170.5t190.5 55.5q81 0 150 -35.5t113 -88.5l-69 -68q-78 102 -197 102q-163 0 -163 -132q0 -53 20 -138l-5 -11h238v-89h-214l8 -11q39 -195 -78 -257v-2h448v-90 h-574z" />
<glyph unicode="&#xa4;" horiz-adv-x="605" d="M55 591l61 59l69 -69q52 35 118 35q64 0 115 -35l71 69l61 -59l-69 -72q35 -58 35 -116q0 -63 -35 -118l68 -69l-60 -60l-71 69q-52 -34 -115 -34q-67 0 -118 35l-69 -69l-60 60l69 70q-35 53 -35 116t35 115zM174 403q0 -54 37.5 -91.5t91.5 -37.5t92 37.5t38 91.5 t-38 92.5t-92 38.5t-91.5 -38.5t-37.5 -92.5z" />
<glyph unicode="&#xa5;" horiz-adv-x="801" d="M25 810h120l210 -297l45 -77h2l44 77l211 297h119l-259 -360l-12 -14l193 4v-88h-255l5 -10v-74l-5 -10h255v-88h-255l5 -9v-161h-95v160l5 10h-253v88h253l-5 10v74l5 10h-253v88h191l-12 10z" />
<glyph unicode="&#xa6;" horiz-adv-x="314" d="M115 -50v410h84v-410h-84zM115 450v410h84v-410h-84z" />
<glyph unicode="&#xa7;" horiz-adv-x="632" d="M44 365q0 56 33 99.5t90 85.5q-53 53 -53 110q0 74 61.5 116.5t152.5 42.5q65 0 129 -29t111 -77l-63 -63q-34 37 -81.5 60.5t-95.5 23.5q-49 0 -81 -19.5t-32 -56.5q0 -36 38.5 -69.5t93.5 -63t110 -61t93.5 -77t38.5 -98.5q0 -102 -112 -187q32 -33 46 -61t14 -68 q0 -85 -60 -129.5t-148 -44.5q-68 0 -135 26.5t-114 73.5l63 63q33 -36 83.5 -55.5t102.5 -19.5q106 0 106 87q0 26 -23 55q-26 31 -75.5 62t-97 57t-93.5 56.5t-74 71t-28 89.5zM138 374q0 -61 93 -116l183 -108q23 21 37 35.5t28.5 39.5t14.5 48q0 26 -18 51t-35.5 38 t-47.5 31l-171 104q-25 -22 -38.5 -35.5t-29.5 -39t-16 -48.5z" />
<glyph unicode="&#xa8;" horiz-adv-x="695" d="M161 774q0 30 16 48t45 18t44.5 -18t15.5 -48q0 -31 -15.5 -48.5t-44.5 -17.5t-45 17.5t-16 48.5zM396 774q0 30 16 48t45 18t44.5 -18t15.5 -48q0 -31 -15.5 -48.5t-44.5 -17.5t-45 17.5t-16 48.5z" />
<glyph unicode="&#xa9;" horiz-adv-x="949" d="M60 401q0 171 121.5 292.5t293.5 121.5q171 0 292.5 -121.5t121.5 -292.5q0 -172 -121.5 -294t-292.5 -122q-172 0 -293.5 122t-121.5 294zM138 401q0 -140 99 -243t238 -103q138 0 237 103t99 243q0 139 -99.5 242t-236.5 103q-138 0 -237.5 -103t-99.5 -242zM222 396 q0 121 67.5 199t185.5 78q122 0 189 -70l-57 -57q-47 52 -132 50q-83 -1 -128 -57.5t-45 -142.5q0 -84 42.5 -138t128.5 -54t140 58l57 -56q-75 -79 -197 -79q-123 0 -187 74.5t-64 194.5z" />
<glyph unicode="&#xaa;" horiz-adv-x="455" d="M30 518q0 28 10 50t25 36.5t39.5 24.5t45.5 15t51.5 8t49 3.5t45.5 0.5q30 0 42 -1l-8 11v9q0 41 -29.5 60t-77.5 19q-84 0 -129 -44l-48 49q71 61 177 61q48 0 85.5 -13t64.5 -49t27 -92v-272h-70v37h-1q-49 -44 -127 -44q-72 0 -122 31.5t-50 99.5zM99 518 q0 -34 31 -49.5t72 -15.5q27 0 53.5 4.5t50.5 20.5t24 40v65l8 10q-6 0 -20.5 0.5t-17.5 0.5q-41 0 -67 -1.5t-61.5 -8t-54 -23.5t-18.5 -43z" />
<glyph unicode="&#xab;" horiz-adv-x="614" d="M55 255l202 202l62 -62l-91 -92l-59 -47v-2l59 -48l91 -91l-62 -62zM295 255l202 202l62 -62l-91 -92l-59 -47v-2l59 -48l91 -91l-62 -62z" />
<glyph unicode="&#xac;" horiz-adv-x="583" d="M30 279v91h523v-320h-92v219l10 10h-441z" />
<glyph unicode="&#xad;" horiz-adv-x="395" d="M30 280v90h335v-90h-335z" />
<glyph unicode="&#xae;" horiz-adv-x="949" d="M60 400q0 172 121.5 293.5t292.5 121.5q172 0 293.5 -121.5t121.5 -293.5q0 -171 -121.5 -293t-293.5 -122q-171 0 -292.5 122t-121.5 293zM138 400q0 -139 99 -242t237 -103t237.5 103t99.5 242q0 140 -99.5 243t-237.5 103q-137 0 -236.5 -103t-99.5 -243zM287 162v476 h208q69 0 115.5 -37.5t46.5 -108.5q0 -40 -20.5 -71.5t-53.5 -47.5q24 -19 39 -52l76 -159h-87l-59 126q-15 32 -37.5 46t-62.5 14h-97l9 -9v-177h-77zM355 423h134q43 0 66.5 19t23.5 50q0 71 -84 71h-140l9 -9v-122z" />
<glyph unicode="&#xaf;" horiz-adv-x="709" d="M170 742v67h395v-67h-395z" />
<glyph unicode="&#xb0;" horiz-adv-x="428" d="M30 632q0 84 44 136t127 52t127.5 -52t44.5 -136q0 -83 -44.5 -135t-126.5 -52q-83 0 -127.5 51.5t-44.5 135.5zM101 632q0 -54 25 -85.5t76 -31.5q50 0 75 31.5t25 85.5t-25 86t-75 32q-51 0 -76 -32t-25 -86z" />
<glyph unicode="&#xb1;" horiz-adv-x="675" d="M90 70v90h495v-90h-495zM90 430v90h208l-5 10v213h90v-213l-5 -10h207v-90h-207l5 -10v-212h-90v212l5 10h-208z" />
<glyph unicode="&#xb2;" horiz-adv-x="421" d="M55 361v82q0 52 27.5 96t82.5 64l54 19q41 15 56 30t15 35q0 55 -76 55q-60 0 -104 -60l-54 55q64 78 158 78q75 0 113.5 -37.5t38.5 -90.5q0 -93 -113 -133l-64 -23q-60 -23 -60 -87v-2l-6 -8h242v-73h-310z" />
<glyph unicode="&#xb3;" horiz-adv-x="455" d="M55 433l54 54q48 -60 116 -60q51 0 76 20.5t25 44.5q0 61 -90 69l-74 2v70q58 1 72 3q45 5 64 22.5t19 38.5q0 20 -21 35.5t-70 15.5q-68 0 -113 -57l-54 55q65 74 168 74q81 0 122.5 -35.5t41.5 -89.5q0 -58 -63 -93v-2q33 -12 52.5 -40t19.5 -66q0 -56 -45 -97.5 t-130 -41.5q-102 0 -170 78z" />
<glyph unicode="&#xb4;" horiz-adv-x="695" d="M247 735l170 198l68 -68l-198 -170z" />
<glyph unicode="&#xb5;" horiz-adv-x="719" d="M81 -210v840h93v-377q0 -82 48 -128.5t123 -46.5q85 0 137 47t52 131v374h92v-630h-92v74h-2q-73 -84 -188 -84q-101 0 -168 84h-2v-284h-93z" />
<glyph unicode="&#xb6;" horiz-adv-x="620" d="M0 560q0 103 73.5 176.5t176.5 73.5h300v-83h-63l5 -7v-901h-85v901l5 7h-81l5 -7v-901h-86v484l6 7h-9q-103 0 -175 73t-72 177z" />
<glyph unicode="&#xb7;" horiz-adv-x="281" d="M60 406q0 37 19.5 59.5t55.5 22.5q37 0 56.5 -22t19.5 -60t-20 -60.5t-56 -22.5t-55.5 22.5t-19.5 60.5z" />
<glyph unicode="&#xb8;" horiz-adv-x="618" d="M259 -148l62 62q22 22 25 35t-10 24l-31 31h63l27 -25q45 -42 -1 -88l-87 -87z" />
<glyph unicode="&#xb9;" horiz-adv-x="282" d="M30 694l116 116h61v-455h-74v311l6 41h-1l-24 -33l-31 -32z" />
<glyph unicode="&#xba;" horiz-adv-x="481" d="M30 604q0 97 51 156.5t147 59.5q97 0 147.5 -59t50.5 -157q0 -97 -51.5 -157t-146.5 -60q-96 0 -147 60t-51 157zM99 604q0 -68 32 -109t97 -41t97 41t32 109q0 67 -32 108t-97 41t-97 -40.5t-32 -108.5z" />
<glyph unicode="&#xbb;" horiz-adv-x="614" d="M55 115l91 91l59 48v2l-59 47l-91 92l62 62l202 -202l-202 -202zM295 115l91 91l59 48v2l-59 47l-91 92l62 62l202 -202l-202 -202z" />
<glyph unicode="&#xbc;" horiz-adv-x="761" d="M30 694l116 116h61v-455h-74v311l6 41h-1l-24 -33l-31 -32zM141 -10l290 830h80l-291 -830h-79zM350 100v58l240 296h67v-274l-4 -7h53v-73h-54l5 -5v-96h-75v96l4 5h-236zM443 172l143 1l-4 7v131l3 39h-2l-23 -38l-91 -112l-26 -26v-2z" />
<glyph unicode="&#xbd;" horiz-adv-x="783" d="M30 694l116 116h61v-455h-74v311l6 41h-1l-24 -33l-31 -32zM141 -10l290 830h80l-291 -830h-79zM418 -1v82q0 53 27.5 96.5t82.5 63.5l54 20q41 14 56 29.5t15 35.5q0 54 -76 54q-60 0 -104 -60l-54 56q65 78 158 78q74 0 112.5 -37.5t38.5 -90.5q0 -93 -112 -133 l-64 -24q-60 -21 -60 -86v-3l-6 -7h242v-74h-310z" />
<glyph unicode="&#xbe;" horiz-adv-x="920" d="M55 433l54 54q48 -60 116 -60q51 0 76 20.5t25 44.5q0 61 -90 69l-74 2v70q58 1 72 3q45 5 64 22.5t19 38.5q0 20 -21 35.5t-70 15.5q-68 0 -113 -57l-54 55q65 74 168 74q81 0 122.5 -35.5t41.5 -89.5q0 -58 -63 -93v-2q33 -12 52.5 -40t19.5 -66q0 -56 -45 -97.5 t-130 -41.5q-102 0 -170 78zM300 -10l291 830h79l-290 -830h-80zM510 100v58l239 296h67v-274l-4 -7h53v-73h-53l4 -5v-96h-75v96l4 5h-235zM602 172l143 1l-4 7v131l3 39h-2l-22 -38l-91 -112l-27 -26v-2z" />
<glyph unicode="&#xbf;" horiz-adv-x="639" d="M55 200q0 65 37.5 114.5t98.5 73.5l38 15q60 23 77.5 55t17.5 106v33h95v-42q0 -97 -31 -150.5t-128 -90.5l-23 -9q-45 -18 -64.5 -43t-19.5 -62q0 -45 45.5 -82.5t112.5 -37.5q124 0 201 103l72 -69q-104 -124 -274 -124q-114 0 -184.5 65t-70.5 145zM296 737 q0 38 20 60.5t56 22.5t55.5 -22.5t19.5 -60.5q0 -37 -19.5 -59.5t-55.5 -22.5q-37 0 -56.5 22t-19.5 60z" />
<glyph unicode="&#xc0;" horiz-adv-x="843" d="M15 0l356 810h101l356 -810h-104l-86 195l5 10h-443l5 -10l-86 -195h-104zM243 295h357l-10 10l-143 325l-24 81h-2l-25 -81l-143 -325zM294 1045l68 68l170 -198l-40 -40z" />
<glyph unicode="&#xc1;" horiz-adv-x="843" d="M15 0l356 810h101l356 -810h-104l-86 195l5 10h-443l5 -10l-86 -195h-104zM243 295h357l-10 10l-143 325l-24 81h-2l-25 -81l-143 -325zM312 914l170 198l68 -68l-198 -170z" />
<glyph unicode="&#xc2;" horiz-adv-x="843" d="M15 0l356 810h101l356 -810h-104l-86 195l5 10h-443l5 -10l-86 -195h-104zM242 911l179 178h2l179 -178l-39 -38l-141 113h-2l-139 -113zM243 295h357l-10 10l-143 325l-24 81h-2l-25 -81l-143 -325z" />
<glyph unicode="&#xc3;" horiz-adv-x="843" d="M15 0l356 810h101l356 -810h-104l-86 195l5 10h-443l5 -10l-86 -195h-104zM188 922q11 40 51.5 73.5t89.5 33.5q36 0 101.5 -37.5t92.5 -37.5q31 0 54 21t32 54l48 -47q-14 -46 -54.5 -76.5t-88.5 -30.5q-35 0 -99.5 37.5t-94.5 37.5q-29 0 -51.5 -20.5t-32.5 -54.5z M243 295h357l-10 10l-143 325l-24 81h-2l-25 -81l-143 -325z" />
<glyph unicode="&#xc4;" horiz-adv-x="843" d="M15 0l356 810h101l356 -810h-104l-86 195l5 10h-443l5 -10l-86 -195h-104zM243 295h357l-10 10l-143 325l-24 81h-2l-25 -81l-143 -325zM246 966q0 30 15.5 48t44.5 18t44.5 -18t15.5 -48t-15.5 -48t-44.5 -18t-44.5 18t-15.5 48zM481 966q0 30 15.5 48t44.5 18t44.5 -18 t15.5 -48t-15.5 -48t-44.5 -18t-44.5 18t-15.5 48z" />
<glyph unicode="&#xc5;" horiz-adv-x="843" d="M15 0l356 810h101l356 -810h-104l-86 195l5 10h-443l5 -10l-86 -195h-104zM243 295h357l-10 10l-143 325l-24 81h-2l-25 -81l-143 -325zM314 986q0 49 27.5 80t79.5 31q53 0 81 -30.5t28 -80.5q0 -49 -28 -80t-80 -31q-53 0 -80.5 30.5t-27.5 80.5zM367 986q0 -60 55 -60 q27 0 41 16.5t14 43.5t-14 43.5t-41 16.5q-55 0 -55 -60z" />
<glyph unicode="&#xc6;" horiz-adv-x="1024" d="M15 0l356 810h583v-90h-364l6 -10v-250l-10 -10h329v-90h-329l10 -10v-250l-10 -10h368v-90h-452v195l5 10h-307l5 -10l-86 -195h-104zM243 295h270l-10 10v405l6 10h-76v-10l-180 -405z" />
<glyph unicode="&#xc7;" horiz-adv-x="785" d="M55 400q0 189 104.5 304.5t292.5 115.5q196 0 303 -124l-72 -69q-77 103 -230 103q-102 0 -171 -45.5t-99 -118t-30 -166.5q0 -69 17 -125.5t51.5 -101t93.5 -69t137 -24.5q154 0 230 102l71 -68q-97 -113 -268 -123l13 -12q45 -42 -1 -88l-87 -87l-48 48l62 62 q22 22 25 35t-10 24l-18 18q-177 9 -271.5 118.5t-94.5 290.5z" />
<glyph unicode="&#xc8;" horiz-adv-x="755" d="M90 0v810h595v-90h-510l10 -10v-250l-10 -10h462v-90h-462l10 -10v-250l-10 -10h510v-90h-595zM272 1045l68 68l170 -198l-40 -40z" />
<glyph unicode="&#xc9;" horiz-adv-x="755" d="M90 0v810h595v-90h-510l10 -10v-250l-10 -10h462v-90h-462l10 -10v-250l-10 -10h510v-90h-595zM307 914l170 198l68 -68l-198 -170z" />
<glyph unicode="&#xca;" horiz-adv-x="755" d="M90 0v810h595v-90h-510l10 -10v-250l-10 -10h462v-90h-462l10 -10v-250l-10 -10h510v-90h-595zM209 911l179 178h2l179 -178l-39 -38l-141 113h-2l-139 -113z" />
<glyph unicode="&#xcb;" horiz-adv-x="755" d="M90 0v810h595v-90h-510l10 -10v-250l-10 -10h462v-90h-462l10 -10v-250l-10 -10h510v-90h-595zM216 966q0 30 15.5 48t44.5 18t44.5 -18t15.5 -48t-15.5 -48t-44.5 -18t-44.5 18t-15.5 48zM451 966q0 30 15.5 48t44.5 18t44.5 -18t15.5 -48t-15.5 -48t-44.5 -18t-44.5 18 t-15.5 48z" />
<glyph unicode="&#xcc;" horiz-adv-x="285" d="M14 1045l68 68l170 -198l-40 -40zM95 0v810h95v-810h-95z" />
<glyph unicode="&#xcd;" horiz-adv-x="285" d="M32 914l170 198l68 -68l-198 -170zM95 0v810h95v-810h-95z" />
<glyph unicode="&#xce;" horiz-adv-x="285" d="M-35 911l179 178h2l179 -178l-39 -38l-141 113h-2l-139 -113zM95 0v810h95v-810h-95z" />
<glyph unicode="&#xcf;" horiz-adv-x="285" d="M-35 966q0 30 15.5 48t44.5 18t44.5 -18t15.5 -48t-15.5 -48t-44.5 -18t-44.5 18t-15.5 48zM95 0v810h95v-810h-95zM200 966q0 30 15.5 48t44.5 18t44.5 -18t15.5 -48t-15.5 -48t-44.5 -18t-44.5 18t-15.5 48z" />
<glyph unicode="&#xd0;" horiz-adv-x="823" d="M25 360v90h70l-5 10v350h306q66 0 120 -12.5t92.5 -33.5t67 -52.5t46 -65.5t28 -76.5t14.5 -81t4 -83.5q0 -64 -8 -117t-31.5 -108.5t-62.5 -93.5t-107 -62t-158 -24h-311v350l5 10h-70zM175 90h216q70 0 121.5 17.5t81 45t47.5 70t23.5 85t5.5 97.5t-6 97t-24 85 t-48.5 70.5t-82.5 45t-123 17.5h-211l10 -10v-250l-5 -10h200v-90h-200l5 -10v-250z" />
<glyph unicode="&#xd1;" horiz-adv-x="845" d="M90 0v810h87l422 -560l59 -91h2v651h95v-810h-87l-419 556l-62 95h-2v-651h-95zM191 922q11 40 51.5 73.5t89.5 33.5q36 0 101.5 -37.5t92.5 -37.5q31 0 54 21t32 54l48 -47q-14 -46 -54.5 -76.5t-88.5 -30.5q-35 0 -99.5 37.5t-94.5 37.5q-29 0 -51.5 -20.5t-32.5 -54.5 z" />
<glyph unicode="&#xd2;" horiz-adv-x="869" d="M55 400q0 190 99 305t280 115q183 0 281.5 -114.5t98.5 -305.5q0 -188 -99.5 -299t-280.5 -111q-183 0 -281 110.5t-98 299.5zM153 400q0 -143 69.5 -231.5t212.5 -88.5q74 0 129 24.5t87.5 69t48.5 101t16 125.5q0 144 -69 237t-212 93t-212.5 -91.5t-69.5 -238.5z M305 1045l68 68l170 -198l-40 -40z" />
<glyph unicode="&#xd3;" horiz-adv-x="869" d="M55 400q0 190 99 305t280 115q183 0 281.5 -114.5t98.5 -305.5q0 -188 -99.5 -299t-280.5 -111q-183 0 -281 110.5t-98 299.5zM153 400q0 -143 69.5 -231.5t212.5 -88.5q74 0 129 24.5t87.5 69t48.5 101t16 125.5q0 144 -69 237t-212 93t-212.5 -91.5t-69.5 -238.5z M324 914l170 198l68 -68l-198 -170z" />
<glyph unicode="&#xd4;" horiz-adv-x="869" d="M55 400q0 190 99 305t280 115q183 0 281.5 -114.5t98.5 -305.5q0 -188 -99.5 -299t-280.5 -111q-183 0 -281 110.5t-98 299.5zM153 400q0 -143 69.5 -231.5t212.5 -88.5q74 0 129 24.5t87.5 69t48.5 101t16 125.5q0 144 -69 237t-212 93t-212.5 -91.5t-69.5 -238.5z M258 911l179 178h2l179 -178l-39 -38l-141 113h-2l-139 -113z" />
<glyph unicode="&#xd5;" horiz-adv-x="869" d="M55 400q0 190 99 305t280 115q183 0 281.5 -114.5t98.5 -305.5q0 -188 -99.5 -299t-280.5 -111q-183 0 -281 110.5t-98 299.5zM153 400q0 -143 69.5 -231.5t212.5 -88.5q74 0 129 24.5t87.5 69t48.5 101t16 125.5q0 144 -69 237t-212 93t-212.5 -91.5t-69.5 -238.5z M199 922q11 40 51.5 73.5t89.5 33.5q36 0 101.5 -37.5t92.5 -37.5q31 0 54 21t32 54l48 -47q-14 -46 -54.5 -76.5t-88.5 -30.5q-35 0 -99.5 37.5t-94.5 37.5q-29 0 -51.5 -20.5t-32.5 -54.5z" />
<glyph unicode="&#xd6;" horiz-adv-x="869" d="M55 400q0 190 99 305t280 115q183 0 281.5 -114.5t98.5 -305.5q0 -188 -99.5 -299t-280.5 -111q-183 0 -281 110.5t-98 299.5zM153 400q0 -143 69.5 -231.5t212.5 -88.5q74 0 129 24.5t87.5 69t48.5 101t16 125.5q0 144 -69 237t-212 93t-212.5 -91.5t-69.5 -238.5z M256 966q0 30 15.5 48t44.5 18t44.5 -18t15.5 -48t-15.5 -48t-44.5 -18t-44.5 18t-15.5 48zM491 966q0 30 15.5 48t44.5 18t44.5 -18t15.5 -48t-15.5 -48t-44.5 -18t-44.5 18t-15.5 48z" />
<glyph unicode="&#xd7;" horiz-adv-x="606" d="M75 241l171 167l-9 3l-162 158l64 64l157 -161l4 -10l167 171l64 -64l-171 -167l9 -3l162 -158l-64 -64l-158 162l-3 9l-167 -171z" />
<glyph unicode="&#xd8;" horiz-adv-x="869" d="M55 400q0 189 100.5 304.5t282.5 115.5q107 0 193 -47v6l40 69l42 -24l-41 -72l-5 -2q147 -111 147 -350q0 -188 -99.5 -299t-280.5 -111q-103 0 -184 38l1 -5l-51 -89l-43 25l51 88l5 2q-158 105 -158 351zM153 400q0 -185 108 -269v7l318 552l6 2q-63 38 -150 38 q-143 0 -212.5 -91.5t-69.5 -238.5zM297 109q60 -29 138 -29q74 0 129 24.5t87.5 69t48.5 101t16 125.5q0 181 -97 267v-6l-317 -549z" />
<glyph unicode="&#xd9;" horiz-adv-x="857" d="M85 371v439h95v-438q0 -142 58.5 -217t190.5 -75q131 0 189.5 75t58.5 217v438h95v-439q0 -381 -343 -381q-344 0 -344 381zM298 1045l68 68l170 -198l-40 -40z" />
<glyph unicode="&#xda;" horiz-adv-x="857" d="M85 371v439h95v-438q0 -142 58.5 -217t190.5 -75q131 0 189.5 75t58.5 217v438h95v-439q0 -381 -343 -381q-344 0 -344 381zM317 914l170 198l68 -68l-198 -170z" />
<glyph unicode="&#xdb;" horiz-adv-x="857" d="M85 371v439h95v-438q0 -142 58.5 -217t190.5 -75q131 0 189.5 75t58.5 217v438h95v-439q0 -381 -343 -381q-344 0 -344 381zM250 911l179 178h2l179 -178l-39 -38l-141 113h-2l-139 -113z" />
<glyph unicode="&#xdc;" horiz-adv-x="857" d="M85 371v439h95v-438q0 -142 58.5 -217t190.5 -75q131 0 189.5 75t58.5 217v438h95v-439q0 -381 -343 -381q-344 0 -344 381zM251 966q0 30 15.5 48t44.5 18t44.5 -18t15.5 -48t-15.5 -48t-44.5 -18t-44.5 18t-15.5 48zM486 966q0 30 15.5 48t44.5 18t44.5 -18t15.5 -48 t-15.5 -48t-44.5 -18t-44.5 18t-15.5 48z" />
<glyph unicode="&#xdd;" horiz-adv-x="801" d="M15 810h120l210 -297l55 -93h2l54 93l211 297h119l-337 -470v-340h-96v340zM292 914l170 198l68 -68l-198 -170z" />
<glyph unicode="&#xde;" horiz-adv-x="772" d="M90 0v810h94v-146l-10 -10h286q126 0 196.5 -69t70.5 -181q0 -109 -71 -179.5t-197 -70.5h-284l10 -10v-144h-95zM175 244h284q84 0 127 44t43 116q0 74 -42.5 117t-126.5 43h-285l10 -10v-300z" />
<glyph unicode="&#xdf;" horiz-adv-x="681" d="M90 0v648q0 106 58.5 151.5t164.5 45.5q103 0 178 -61.5t75 -156.5q0 -108 -89 -160v-2q68 -24 108.5 -84t40.5 -141q0 -108 -70 -179.5t-175 -71.5q-84 0 -147 21v90q67 -24 138 -24q72 0 117 44t45 119t-47 121.5t-121 46.5h-129v85l92 -1q67 0 105.5 34t38.5 97 q0 64 -46 100.5t-115 36.5q-72 0 -101 -31t-29 -102v-626h-92z" />
<glyph unicode="&#xe0;" horiz-adv-x="695" d="M55 183q0 41 15 73.5t37.5 53.5t58.5 36.5t68.5 23.5t77.5 12t75 5t71 1q46 0 70 -4l-10 11v14q0 76 -47.5 109.5t-125.5 33.5q-131 0 -198 -63l-64 63q103 87 262 87q53 0 98 -11.5t84 -36.5t61 -71.5t22 -109.5v-410h-92v56h-2q-75 -67 -204 -67q-50 0 -94 10.5 t-81.5 32t-59.5 60.5t-22 91zM147 183q0 -39 28.5 -64.5t63.5 -34t74 -8.5q29 0 60 4.5t66 15.5t57 33.5t22 54.5v111l10 9q-36 3 -64 3h-46t-49 -1.5t-54.5 -4.5t-49.5 -8.5t-47.5 -15t-35.5 -22t-26.5 -31t-8.5 -41.5zM227 865l68 68l170 -198l-40 -40z" />
<glyph unicode="&#xe1;" horiz-adv-x="695" d="M55 183q0 41 15 73.5t37.5 53.5t58.5 36.5t68.5 23.5t77.5 12t75 5t71 1q46 0 70 -4l-10 11v14q0 76 -47.5 109.5t-125.5 33.5q-131 0 -198 -63l-64 63q103 87 262 87q53 0 98 -11.5t84 -36.5t61 -71.5t22 -109.5v-410h-92v56h-2q-75 -67 -204 -67q-50 0 -94 10.5 t-81.5 32t-59.5 60.5t-22 91zM147 183q0 -39 28.5 -64.5t63.5 -34t74 -8.5q29 0 60 4.5t66 15t57 33.5t22 55v111l10 9q-36 3 -64 3h-46t-49 -1.5t-54.5 -4.5t-49.5 -8.5t-47.5 -15t-35.5 -22t-26.5 -31t-8.5 -41.5zM247 735l170 198l68 -68l-198 -170z" />
<glyph unicode="&#xe2;" horiz-adv-x="695" d="M55 183q0 41 15 73.5t37.5 53.5t58.5 36.5t68.5 23.5t77.5 12t75 5t71 1q46 0 70 -4l-10 11v14q0 76 -47.5 109.5t-125.5 33.5q-131 0 -198 -63l-64 63q103 87 262 87q53 0 98 -11.5t84 -36.5t61 -71.5t22 -109.5v-410h-92v56h-2q-75 -67 -204 -67q-50 0 -94 10.5 t-81.5 32t-59.5 60.5t-22 91zM147 183q0 -39 28.5 -64.5t63.5 -34t74 -8.5q29 0 60 4.5t66 15t57 33.5t22 55v111l10 9q-36 3 -64 3h-46t-49 -1.5t-54.5 -4.5t-49.5 -8.5t-47.5 -15t-35.5 -22t-26.5 -31t-8.5 -41.5zM156 735l179 178h2l179 -178l-39 -39l-140 114h-2 l-140 -114z" />
<glyph unicode="&#xe3;" horiz-adv-x="695" d="M55 183q0 41 15 73.5t37.5 53.5t58.5 36.5t68.5 23.5t77.5 12t75 5t71 1q46 0 70 -4l-10 11v14q0 76 -47.5 109.5t-125.5 33.5q-131 0 -198 -63l-64 63q103 87 262 87q53 0 98 -11.5t84 -36.5t61 -71.5t22 -109.5v-410h-92v56h-2q-75 -67 -204 -67q-50 0 -94 10.5 t-81.5 32t-59.5 60.5t-22 91zM100 760q12 41 52.5 74t89.5 33q36 0 101 -37.5t92 -37.5q31 0 54 21t32 54l49 -47q-14 -46 -54.5 -76.5t-89.5 -30.5q-35 0 -99 37.5t-94 37.5q-29 0 -52 -20.5t-33 -55.5zM147 183q0 -39 28.5 -64.5t63.5 -34t74 -8.5q29 0 60 4.5t66 15 t57 33.5t22 55v111l10 9q-36 3 -64 3h-46t-49 -1.5t-54.5 -4.5t-49.5 -8.5t-47.5 -15t-35.5 -22t-26.5 -31t-8.5 -41.5z" />
<glyph unicode="&#xe4;" horiz-adv-x="695" d="M55 183q0 41 15 73.5t37.5 53.5t58.5 36.5t68.5 23.5t77.5 12t75 5t71 1q46 0 70 -4l-10 11v14q0 76 -47.5 109.5t-125.5 33.5q-131 0 -198 -63l-64 63q103 87 262 87q53 0 98 -11.5t84 -36.5t61 -71.5t22 -109.5v-410h-92v56h-2q-75 -67 -204 -67q-50 0 -94 10.5 t-81.5 32t-59.5 60.5t-22 91zM147 183q0 -39 28.5 -64.5t63.5 -34t74 -8.5q29 0 60 4.5t66 15t57 33.5t22 55v111l10 9q-36 3 -64 3h-46t-49 -1.5t-54.5 -4.5t-49.5 -8.5t-47.5 -15t-35.5 -22t-26.5 -31t-8.5 -41.5zM161 774q0 30 16 48t45 18t44.5 -18t15.5 -48 q0 -31 -15.5 -48.5t-44.5 -17.5t-45 17.5t-16 48.5zM396 774q0 30 16 48t45 18t44.5 -18t15.5 -48q0 -31 -15.5 -48.5t-44.5 -17.5t-45 17.5t-16 48.5z" />
<glyph unicode="&#xe5;" horiz-adv-x="695" d="M55 183q0 41 15 73.5t37.5 53.5t58.5 36.5t68.5 23.5t77.5 12t75 5t71 1q46 0 70 -4l-10 11v14q0 76 -47.5 109.5t-125.5 33.5q-131 0 -198 -63l-64 63q103 87 262 87q53 0 98 -11.5t84 -36.5t61 -71.5t22 -109.5v-410h-92v56h-2q-75 -67 -204 -67q-50 0 -94 10.5 t-81.5 32t-59.5 60.5t-22 91zM147 183q0 -39 28.5 -64.5t63.5 -34t74 -8.5q29 0 60 4.5t66 15t57 33.5t22 55v111l10 9q-36 3 -64 3h-46t-49 -1.5t-54.5 -4.5t-49.5 -8.5t-47.5 -15t-35.5 -22t-26.5 -31t-8.5 -41.5zM232 807q0 49 27.5 80t79.5 31q53 0 81 -30.5t28 -80.5 q0 -49 -28 -80t-80 -31q-53 0 -80.5 30.5t-27.5 80.5zM285 807q0 -60 55 -60t55 60q0 27 -14 43.5t-41 16.5q-55 0 -55 -60z" />
<glyph unicode="&#xe6;" horiz-adv-x="1163" d="M55 183q0 41 15 73.5t37.5 53.5t58.5 36.5t68.5 23.5t77.5 12t75 5t71 1q43 0 67 -4l-7 11v14q0 76 -47.5 109.5t-125.5 33.5q-131 0 -198 -63l-64 63q103 87 262 87q170 0 234 -109h2q39 51 99.5 80.5t132.5 29.5q144 0 219.5 -90.5t75.5 -239.5q0 -11 -2 -37h-507 l9 -10q26 -185 210 -185q103 0 173 68l65 -64q-94 -92 -239 -92q-156 0 -239 102h-2q-45 -60 -108.5 -81.5t-155.5 -21.5q-50 0 -94 10.5t-81.5 32t-59.5 60.5t-22 91zM147 183q0 -39 28.5 -64.5t63.5 -34t74 -8.5q29 0 60 4.5t66 15t57 33.5t22 55v111l7 9q-36 3 -61 3h-46 t-49 -1.5t-54.5 -4.5t-49.5 -8.5t-47.5 -15t-35.5 -22t-26.5 -31t-8.5 -41.5zM601 357h427l-15 10q-12 85 -61.5 135t-138.5 50q-90 0 -140.5 -50.5t-63.5 -134.5z" />
<glyph unicode="&#xe7;" horiz-adv-x="618" d="M55 310q0 145 80.5 237.5t220.5 92.5q147 0 224 -82l-65 -65q-56 61 -159 59q-101 -1 -155 -69.5t-54 -172.5q0 -102 51 -167t157 -65q104 0 168 68l65 -64q-79 -82 -203 -91v-2l10 -10q44 -43 0 -87l-88 -88l-48 48l63 63q21 21 24 32.5t-10 25.5l-18 18 q-129 12 -196 98.5t-67 220.5z" />
<glyph unicode="&#xe8;" d="M55 310q0 148 80 239t220 91q144 0 219.5 -90.5t75.5 -239.5q0 -11 -2 -37h-509l11 -10q26 -185 210 -185q103 0 173 68l65 -64q-94 -92 -239 -92q-150 0 -227 88t-77 232zM140 357h426l-11 10q-12 85 -61.5 135t-138.5 50q-90 0 -140.5 -50.5t-63.5 -134.5zM222 865 l68 68l170 -198l-40 -40z" />
<glyph unicode="&#xe9;" d="M55 310q0 148 80 239t220 91q144 0 219.5 -90.5t75.5 -239.5q0 -11 -2 -37h-509l11 -10q26 -185 210 -185q103 0 173 68l65 -64q-94 -92 -239 -92q-150 0 -227 88t-77 232zM140 357h426l-11 10q-12 85 -61.5 135t-138.5 50q-90 0 -140.5 -50.5t-63.5 -134.5zM252 735 l170 198l68 -68l-198 -170z" />
<glyph unicode="&#xea;" d="M55 310q0 148 80 239t220 91q144 0 219.5 -90.5t75.5 -239.5q0 -11 -2 -37h-509l11 -10q26 -185 210 -185q103 0 173 68l65 -64q-94 -92 -239 -92q-150 0 -227 88t-77 232zM140 357h426l-11 10q-12 85 -61.5 135t-138.5 50q-90 0 -140.5 -50.5t-63.5 -134.5zM178 735 l179 178h2l179 -178l-39 -39l-140 114h-2l-140 -114z" />
<glyph unicode="&#xeb;" d="M55 310q0 148 80 239t220 91q144 0 219.5 -90.5t75.5 -239.5q0 -11 -2 -37h-509l11 -10q26 -185 210 -185q103 0 173 68l65 -64q-94 -92 -239 -92q-150 0 -227 88t-77 232zM140 357h426l-11 10q-12 85 -61.5 135t-138.5 50q-90 0 -140.5 -50.5t-63.5 -134.5zM178 774 q0 30 16 48t45 18t44.5 -18t15.5 -48q0 -31 -15.5 -48.5t-44.5 -17.5t-45 17.5t-16 48.5zM413 774q0 30 16 48t45 18t44.5 -18t15.5 -48q0 -31 -15.5 -48.5t-44.5 -17.5t-45 17.5t-16 48.5z" />
<glyph unicode="&#xec;" horiz-adv-x="272" d="M9 865l68 68l170 -198l-40 -40zM90 0v630h92v-630h-92z" />
<glyph unicode="&#xed;" horiz-adv-x="272" d="M26 735l170 198l68 -68l-198 -170zM90 0v630h92v-630h-92z" />
<glyph unicode="&#xee;" horiz-adv-x="272" d="M-43 735l179 178h2l179 -178l-39 -39l-140 114h-2l-140 -114zM90 0v630h92v-630h-92z" />
<glyph unicode="&#xef;" horiz-adv-x="272" d="M-41 774q0 30 16 48t45 18t44.5 -18t15.5 -48q0 -31 -15.5 -48.5t-44.5 -17.5t-45 17.5t-16 48.5zM90 0v630h92v-630h-92zM194 774q0 30 16 48t45 18t44.5 -18t15.5 -48q0 -31 -15.5 -48.5t-44.5 -17.5t-45 17.5t-16 48.5z" />
<glyph unicode="&#xf0;" horiz-adv-x="675" d="M55 299q0 139 72.5 224t209.5 85q27 0 57 -5l-55 84v12l-87 -53l-42 64l86 52l-8 4l-53 80h104l22 -34l1 -10l74 45l42 -64l-74 -45l9 -5l159 -242q48 -73 48 -192q0 -139 -73 -224t-210 -85t-209.5 85t-72.5 224zM144 299q0 -100 48.5 -162t145.5 -62t145 61.5t48 162.5 t-48 162t-146 61t-145.5 -61t-47.5 -162z" />
<glyph unicode="&#xf1;" horiz-adv-x="728" d="M90 0v630h92v-79h2q32 41 86.5 65t114.5 24q124 0 191 -61.5t67 -176.5v-402h-92v382q0 84 -37.5 127t-138.5 43q-84 0 -138.5 -46t-54.5 -132v-374h-92zM142 760q12 41 52.5 74t89.5 33q36 0 101 -37.5t92 -37.5q31 0 54 21t32 54l49 -47q-14 -46 -54.5 -76.5 t-89.5 -30.5q-35 0 -99 37.5t-94 37.5q-29 0 -52 -20.5t-33 -55.5z" />
<glyph unicode="&#xf2;" d="M55 315q0 146 76.5 235.5t220.5 89.5q145 0 221.5 -88.5t76.5 -236.5q0 -145 -77.5 -235t-220.5 -90q-144 0 -220.5 89t-76.5 236zM147 315q0 -106 51 -171.5t155 -65.5t154.5 65.5t50.5 171.5t-51 171.5t-155 65.5t-154.5 -65t-50.5 -172zM215 865l68 68l170 -198 l-40 -40z" />
<glyph unicode="&#xf3;" d="M55 315q0 146 76.5 235.5t220.5 89.5q145 0 221.5 -88.5t76.5 -236.5q0 -145 -77.5 -235t-220.5 -90q-144 0 -220.5 89t-76.5 236zM147 315q0 -106 51 -171.5t155 -65.5t154.5 65.5t50.5 171.5t-51 171.5t-155 65.5t-154.5 -65t-50.5 -172zM252 735l170 198l68 -68 l-198 -170z" />
<glyph unicode="&#xf4;" d="M55 315q0 146 76.5 235.5t220.5 89.5q145 0 221.5 -88.5t76.5 -236.5q0 -145 -77.5 -235t-220.5 -90q-144 0 -220.5 89t-76.5 236zM147 315q0 -106 51 -171.5t155 -65.5t154.5 65.5t50.5 171.5t-51 171.5t-155 65.5t-154.5 -65t-50.5 -172zM174 735l179 178h2l179 -178 l-39 -39l-140 114h-2l-140 -114z" />
<glyph unicode="&#xf5;" d="M55 315q0 146 76.5 235.5t220.5 89.5q145 0 221.5 -88.5t76.5 -236.5q0 -145 -77.5 -235t-220.5 -90q-144 0 -220.5 89t-76.5 236zM119 760q12 41 52.5 74t89.5 33q36 0 101 -37.5t92 -37.5q31 0 54 21t32 54l49 -47q-14 -46 -54.5 -76.5t-89.5 -30.5q-35 0 -99 37.5 t-94 37.5q-29 0 -52 -20.5t-33 -55.5zM147 315q0 -106 51 -171.5t155 -65.5t154.5 65.5t50.5 171.5t-51 171.5t-155 65.5t-154.5 -65t-50.5 -172z" />
<glyph unicode="&#xf6;" d="M55 315q0 146 76.5 235.5t220.5 89.5q145 0 221.5 -88.5t76.5 -236.5q0 -145 -77.5 -235t-220.5 -90q-144 0 -220.5 89t-76.5 236zM147 315q0 -106 51 -171.5t155 -65.5t154.5 65.5t50.5 171.5t-51 171.5t-155 65.5t-154.5 -65t-50.5 -172zM175 774q0 30 16 48t45 18 t44.5 -18t15.5 -48q0 -31 -15.5 -48.5t-44.5 -17.5t-45 17.5t-16 48.5zM410 774q0 30 16 48t45 18t44.5 -18t15.5 -48q0 -31 -15.5 -48.5t-44.5 -17.5t-45 17.5t-16 48.5z" />
<glyph unicode="&#xf7;" horiz-adv-x="675" d="M90 360v90h495v-90h-495zM263 188q0 37 19.5 59.5t55.5 22.5q37 0 56.5 -22t19.5 -60t-20 -60.5t-56 -22.5t-55.5 22.5t-19.5 60.5zM263 623q0 37 19.5 59.5t55.5 22.5q37 0 56.5 -22t19.5 -60t-20 -60.5t-56 -22.5t-55.5 22.5t-19.5 60.5z" />
<glyph unicode="&#xf8;" d="M55 315q0 146 76.5 235.5t220.5 89.5q84 0 146 -31v5l42 72l42 -25l-42 -73l-4 -2q114 -86 114 -271q0 -145 -77.5 -235t-220.5 -90q-83 0 -143 30v-6l-41 -72l-42 24l41 73l6 2q-118 87 -118 274zM147 315q0 -129 72 -193l1 7l229 398l5 3q-46 22 -102 22 q-104 0 -154.5 -65t-50.5 -172zM255 98q42 -20 98 -20q104 0 154.5 65.5t50.5 171.5q0 126 -69 191v-6l-229 -398z" />
<glyph unicode="&#xf9;" horiz-adv-x="720" d="M85 238v392h92v-387q0 -80 36 -122.5t136 -42.5q83 0 136 46t53 132v374h92v-630h-92v79h-2q-78 -89 -197 -89q-130 0 -192 64.5t-62 183.5zM222 865l68 68l170 -198l-40 -40z" />
<glyph unicode="&#xfa;" horiz-adv-x="720" d="M85 238v392h92v-387q0 -80 36 -122.5t136 -42.5q83 0 136 46t53 132v374h92v-630h-92v79h-2q-78 -89 -197 -89q-130 0 -192 64.5t-62 183.5zM260 735l170 198l68 -68l-198 -170z" />
<glyph unicode="&#xfb;" horiz-adv-x="720" d="M85 238v392h92v-387q0 -80 36 -122.5t136 -42.5q83 0 136 46t53 132v374h92v-630h-92v79h-2q-78 -89 -197 -89q-130 0 -192 64.5t-62 183.5zM175 735l179 178h2l179 -178l-39 -39l-140 114h-2l-140 -114z" />
<glyph unicode="&#xfc;" horiz-adv-x="720" d="M85 238v392h92v-387q0 -80 36 -122.5t136 -42.5q83 0 136 46t53 132v374h92v-630h-92v79h-2q-78 -89 -197 -89q-130 0 -192 64.5t-62 183.5zM180 774q0 30 16 48t45 18t44.5 -18t15.5 -48q0 -31 -15.5 -48.5t-44.5 -17.5t-45 17.5t-16 48.5zM415 774q0 30 16 48t45 18 t44.5 -18t15.5 -48q0 -31 -15.5 -48.5t-44.5 -17.5t-45 17.5t-16 48.5z" />
<glyph unicode="&#xfd;" horiz-adv-x="662" d="M15 630h103l196 -451l27 -80h2l26 80l175 451h103l-285 -698q-28 -69 -75.5 -108t-106.5 -39q-71 0 -118 25v87q45 -25 106 -25q78 0 128 129zM227 735l170 198l68 -68l-198 -170z" />
<glyph unicode="&#xfe;" horiz-adv-x="728" d="M90 -210v1050h92v-287h2q68 87 197 87q143 0 217.5 -89.5t74.5 -235.5q0 -148 -74 -236.5t-218 -88.5q-124 0 -197 83h-2v-283h-92zM174 315q0 -108 49 -172.5t154 -64.5t154.5 64.5t49.5 172.5t-49 172.5t-154 64.5t-154.5 -65t-49.5 -172z" />
<glyph unicode="&#xff;" horiz-adv-x="662" d="M15 630h103l196 -451l27 -80h2l26 80l175 451h103l-285 -698q-28 -69 -75.5 -108t-106.5 -39q-71 0 -118 25v87q45 -25 106 -25q78 0 128 129zM149 774q0 30 16 48t45 18t44.5 -18t15.5 -48q0 -31 -15.5 -48.5t-44.5 -17.5t-45 17.5t-16 48.5zM384 774q0 30 16 48t45 18 t44.5 -18t15.5 -48q0 -31 -15.5 -48.5t-44.5 -17.5t-45 17.5t-16 48.5z" />
<glyph unicode="&#x152;" horiz-adv-x="1092" d="M55 400q0 190 80 305t227 115q125 0 198 -81h2v71h460v-90h-373l8 -10v-250l-8 -10h335v-90h-335l8 -10v-250l-8 -10h373v-90h-460v69h-2q-72 -79 -198 -79q-148 0 -227.5 110.5t-79.5 299.5zM153 400q0 -142 52.5 -231t156.5 -89q71 0 119.5 44t69.5 114t21 162 q0 143 -52.5 236.5t-157.5 93.5q-104 0 -156.5 -92.5t-52.5 -237.5z" />
<glyph unicode="&#x153;" horiz-adv-x="1202" d="M55 315q0 146 76.5 235.5t220.5 89.5q175 0 250 -130h2q81 130 248 130q144 0 219.5 -90.5t75.5 -239.5q0 -11 -2 -37h-509l11 -10q26 -185 210 -185q103 0 173 68l65 -64q-94 -92 -239 -92q-179 0 -255 126h-2q-75 -126 -247 -126q-144 0 -220.5 89t-76.5 236zM147 315 q0 -106 51 -171.5t155 -65.5t154.5 65.5t50.5 171.5t-51 171.5t-155 65.5t-154.5 -65t-50.5 -172zM637 357h426l-11 10q-12 85 -62 135t-138 50q-90 0 -140.5 -50.5t-63.5 -134.5z" />
<glyph unicode="&#x178;" horiz-adv-x="801" d="M15 810h120l210 -297l55 -93h2l54 93l211 297h119l-337 -470v-340h-96v340zM222 966q0 30 15.5 48t44.5 18t44.5 -18t15.5 -48t-15.5 -48t-44.5 -18t-44.5 18t-15.5 48zM457 966q0 30 15.5 48t44.5 18t44.5 -18t15.5 -48t-15.5 -48t-44.5 -18t-44.5 18t-15.5 48z" />
<glyph unicode="&#x2c6;" horiz-adv-x="695" d="M156 735l179 178h2l179 -178l-39 -39l-140 114h-2l-140 -114z" />
<glyph unicode="&#x2dc;" horiz-adv-x="695" d="M100 760q12 41 52.5 74t89.5 33q36 0 101 -37.5t92 -37.5q31 0 54 21t32 54l49 -47q-14 -46 -54.5 -76.5t-89.5 -30.5q-35 0 -99 37.5t-94 37.5q-29 0 -52 -20.5t-33 -55.5z" />
<glyph unicode="&#x2000;" horiz-adv-x="556" />
<glyph unicode="&#x2001;" horiz-adv-x="1113" />
<glyph unicode="&#x2002;" horiz-adv-x="556" />
<glyph unicode="&#x2003;" horiz-adv-x="1113" />
<glyph unicode="&#x2004;" horiz-adv-x="371" />
<glyph unicode="&#x2005;" horiz-adv-x="278" />
<glyph unicode="&#x2006;" horiz-adv-x="185" />
<glyph unicode="&#x2007;" horiz-adv-x="185" />
<glyph unicode="&#x2008;" horiz-adv-x="139" />
<glyph unicode="&#x2009;" horiz-adv-x="222" />
<glyph unicode="&#x200a;" horiz-adv-x="61" />
<glyph unicode="&#x2010;" horiz-adv-x="395" d="M30 280v90h335v-90h-335z" />
<glyph unicode="&#x2011;" horiz-adv-x="395" d="M30 280v90h335v-90h-335z" />
<glyph unicode="&#x2012;" horiz-adv-x="395" d="M30 280v90h335v-90h-335z" />
<glyph unicode="&#x2013;" horiz-adv-x="614" d="M30 280v90h554v-90h-554z" />
<glyph unicode="&#x2014;" horiz-adv-x="889" d="M30 280v90h829v-90h-829z" />
<glyph unicode="&#x2018;" horiz-adv-x="235" d="M45 594q0 21 11 49l78 182l56 -23l-52 -121l-12 -10q29 0 46.5 -21.5t17.5 -55.5q0 -36 -18.5 -57.5t-52.5 -21.5q-35 0 -54.5 21.5t-19.5 57.5z" />
<glyph unicode="&#x2019;" horiz-adv-x="235" d="M45 533l52 122l13 9q-30 0 -47.5 22t-17.5 56q0 35 19 56.5t53 21.5q35 0 54 -21.5t19 -56.5q0 -26 -11 -50l-78 -182z" />
<glyph unicode="&#x201a;" horiz-adv-x="235" d="M45 71q0 35 19 56.5t53 21.5q35 0 54 -21.5t19 -56.5q0 -26 -11 -50l-78 -182l-56 23l52 122l13 9q-30 0 -47.5 22t-17.5 56z" />
<glyph unicode="&#x201c;" horiz-adv-x="420" d="M45 594q0 21 11 49l78 182l56 -23l-52 -121l-12 -10q29 0 46.5 -21.5t17.5 -55.5q0 -36 -18.5 -57.5t-52.5 -21.5q-35 0 -54.5 21.5t-19.5 57.5zM230 594q0 21 11 49l78 182l56 -23l-52 -121l-12 -10q29 0 46.5 -21.5t17.5 -55.5q0 -36 -18.5 -57.5t-52.5 -21.5 q-35 0 -54.5 21.5t-19.5 57.5z" />
<glyph unicode="&#x201d;" horiz-adv-x="420" d="M45 533l52 122l13 9q-30 0 -47.5 22t-17.5 56q0 35 19 56.5t53 21.5q35 0 54 -21.5t19 -56.5q0 -26 -11 -50l-78 -182zM230 533l52 122l13 9q-30 0 -47.5 22t-17.5 56q0 35 19 56.5t53 21.5q35 0 54 -21.5t19 -56.5q0 -26 -11 -50l-78 -182z" />
<glyph unicode="&#x201e;" horiz-adv-x="420" d="M45 71q0 35 19 56.5t53 21.5q35 0 54 -21.5t19 -56.5q0 -26 -11 -50l-78 -182l-56 23l52 122l13 9q-30 0 -47.5 22t-17.5 56zM230 71q0 35 19 56.5t53 21.5q35 0 54 -21.5t19 -56.5q0 -26 -11 -50l-78 -182l-56 23l52 122l13 9q-30 0 -47.5 22t-17.5 56z" />
<glyph unicode="&#x2022;" horiz-adv-x="360" d="M0 405q0 55 40 95t95 40q56 0 95.5 -39.5t39.5 -95.5t-39.5 -96t-95.5 -40t-95.5 40t-39.5 96z" />
<glyph unicode="&#x2026;" horiz-adv-x="843" d="M60 69q0 35 19 56.5t53 21.5t52.5 -21t18.5 -57t-18.5 -57.5t-52.5 -21.5q-35 0 -53.5 21.5t-18.5 57.5zM345 69q0 35 19 56.5t53 21.5t52.5 -21t18.5 -57t-18.5 -57.5t-52.5 -21.5q-35 0 -53.5 21.5t-18.5 57.5zM630 69q0 35 19 56.5t53 21.5t52.5 -21t18.5 -57 t-18.5 -57.5t-52.5 -21.5q-35 0 -53.5 21.5t-18.5 57.5z" />
<glyph unicode="&#x202f;" horiz-adv-x="222" />
<glyph unicode="&#x2039;" horiz-adv-x="374" d="M55 255l202 202l62 -62l-91 -92l-59 -47v-2l59 -48l91 -91l-62 -62z" />
<glyph unicode="&#x203a;" horiz-adv-x="374" d="M55 115l91 91l59 48v2l-59 47l-91 92l62 62l202 -202l-202 -202z" />
<glyph unicode="&#x205f;" horiz-adv-x="278" />
<glyph unicode="&#x20ac;" horiz-adv-x="749" d="M40 270v90h71l-5 10q-1 10 -1 30q0 27 1 40l6 10h-72v90h85l-4 10q29 125 110 197.5t199 72.5q165 0 249 -124l-68 -69q-62 103 -181 103q-79 0 -132.5 -49t-75.5 -131l-7 -10h302v-90h-319l7 -10q-2 -26 -2 -40q0 -5 0.5 -15t0.5 -15l-6 -10h319v-90h-304l6 -10 q21 -83 74.5 -131.5t135.5 -48.5q120 0 182 102l67 -68q-86 -124 -249 -124q-123 0 -203.5 72t-107.5 198l4 10h-82z" />
<glyph unicode="&#x2122;" horiz-adv-x="832" d="M30 764v45h338v-45h-148l3 -5v-355h-48v355l3 5h-148zM405 404v405h43l136 -270l19 -47h1l20 47l136 270h42v-405h-47v298h-1l-27 -64l-123 -239h-1l-124 242l-25 61h-1v-298h-48z" />
<glyph unicode="&#x25fc;" horiz-adv-x="630" d="M0 0v630h630v-630h-630z" />
<glyph unicode="&#xfb01;" horiz-adv-x="684" d="M30 546v84h80l-5 10v8q0 92 54 144.5t147 52.5q46 0 86 -16v-86q-39 16 -84 16q-111 0 -111 -119l-5 -10h402v-630h-92v546h-310l5 -10v-536h-92v536l5 10h-80zM488 780q0 30 15.5 48t44.5 18t44.5 -18t15.5 -48t-15.5 -48t-44.5 -18t-44.5 18t-15.5 48z" />
<glyph unicode="&#xfb02;" horiz-adv-x="684" d="M30 546v84h80l-5 10v8q0 90 53 140.5t148 50.5h288v-839h-92v753h-194q-111 0 -111 -107v-6l-5 -10h200v-84h-200l5 -10v-536h-92v536l5 10h-80z" />
</font>
</defs>
</svg>
